<svg width="179" height="160" viewBox="0 0 179 160" fill="none" xmlns="http://www.w3.org/2000/svg">
<g id="assets/logo">
<path id="Vector" d="M89.6677 0.0697403C89.6168 0.120644 88.3187 0.22245 86.766 0.247902C83.9407 0.324249 83.2534 0.400604 79.2572 1.13867C71.2394 2.58936 61.5416 6.78872 55.28 11.4971C50.0621 15.391 46.4731 19.2341 42.8078 24.7569C37.3862 33.0283 34.7391 41.4016 34.0773 52.5235C33.6191 59.8279 35.5536 69.0156 39.0662 76.1927C41.5352 81.3082 45.5568 87.111 49.0185 90.5977C58.2327 99.8872 69.814 105.843 82.6935 107.93C85.3406 108.337 93.5112 108.337 96.4384 107.904C99.9764 107.395 105.016 106.199 108.554 105.079C116.954 102.381 126.066 96.4768 130.953 90.5723C134.008 86.8819 136.222 84.0315 136.655 83.1916C136.909 82.708 137.444 81.8936 137.826 81.41C140.142 78.5087 144.062 68.9392 145.029 63.9509C145.564 61.075 146.022 54.4324 145.818 52.1418C145.055 42.9286 143.858 38.0676 140.778 31.5013C137.393 24.197 129.986 15.3147 123.419 10.6063C120.161 8.29031 114.867 5.36348 111.66 4.14185C106.391 2.1567 99.8491 0.629662 95.2675 0.349701C93.9439 0.273346 92.1876 0.146095 91.3222 0.095192C90.4822 0.0188446 89.7441 0.0188446 89.6677 0.0697403ZM97.3292 3.68374C103.336 4.44726 110.921 6.89052 116.038 9.66464C121.536 12.6424 128.383 18.496 132.251 23.5352C136.349 28.8544 139.887 36.1079 141.262 41.9361C143.782 52.549 143.349 62.0421 139.938 70.619C137.164 77.6688 134.822 81.6137 130.292 86.8819C126.703 91.0558 122.401 94.7716 118.252 97.2913C111.94 101.109 106.722 103.069 99.1619 104.494C95.802 105.13 94.8857 105.206 90.075 105.181C84.3734 105.156 81.599 104.85 77.1701 103.705C68.0577 101.312 58.2836 95.8151 52.0729 89.5543C41.866 79.2467 36.4445 65.7833 37.1062 52.269C37.3353 47.917 37.5899 46.0591 38.5825 41.9615C41.0261 31.8322 46.6768 22.7208 54.7964 15.7982C58.1054 12.9732 58.3345 12.8205 61.898 10.6827C65.5887 8.51936 67.7268 7.52679 72.0794 6.0761C80.5808 3.25108 88.1914 2.51301 97.3292 3.68374Z" fill="#EDDEA3"/>
<path id="Vector_2" d="M89.0314 10.8861C88.1659 11.4206 87.4023 12.7949 87.4023 13.8384C87.4023 14.8565 89.1332 16.5107 90.1768 16.5107C92.7985 16.5107 94.1984 13.5839 92.5185 11.726C91.8058 10.9625 90.8131 10.4026 90.1259 10.4026C89.9477 10.4026 89.4641 10.6316 89.0314 10.8861Z" fill="#EDDEA3"/>
<path id="Vector_3" d="M102.903 14.449C101.478 15.8742 102.165 18.3175 104.099 18.6993C104.761 18.8265 105.067 18.6993 105.754 18.0884C106.492 17.4267 106.619 17.1468 106.619 16.1287C106.619 15.1362 106.492 14.8308 105.907 14.3217C104.914 13.4819 103.845 13.5328 102.903 14.449Z" fill="#EDDEA3"/>
<path id="Vector_4" d="M119.448 23.0004C119.219 23.9421 119.041 24.1711 118.481 24.2984C116.929 24.6038 116.343 25.5709 117.616 25.7236C118.278 25.8 118.328 25.9018 118.405 26.9962C118.481 28.3196 118.608 28.4214 119.372 27.836C120.008 27.3525 120.467 27.3525 121.077 27.8869C121.561 28.3451 121.587 28.3196 121.408 27.1998C121.256 26.0545 121.256 26.029 122.146 25.5964C123.394 25.011 123.317 24.4511 121.968 24.3493C120.874 24.2729 120.874 24.2729 120.645 23.0513C120.365 21.4988 119.83 21.4734 119.448 23.0004Z" fill="#EDDEA3"/>
<path id="Vector_5" d="M59.9639 22.5166C59.6584 22.7202 59.4039 23.1783 59.4039 23.5092C59.4039 23.9928 59.1748 24.1709 58.3348 24.4509C57.0622 24.8835 56.9094 25.4944 58.0039 25.6725C58.6912 25.7998 58.7676 25.9016 58.8439 26.9196L58.9203 28.0649L59.5312 27.3014L60.1166 26.5633L60.9566 27.3268L61.7711 28.0903L61.6183 27.0214C61.4911 25.9779 61.5165 25.9016 62.4838 25.3671C63.5783 24.7563 63.5528 24.4 62.4329 24.4C61.7711 24.4 61.6183 24.2473 61.1856 23.2547C60.9056 22.6184 60.6511 22.1094 60.6257 22.1094C60.5748 22.1094 60.2693 22.2876 59.9639 22.5166Z" fill="#EDDEA3"/>
<path id="Vector_6" d="M88.8275 25.2143C88.0894 27.2503 84.8059 33.2567 82.6423 36.6161C81.0642 39.0594 77.7298 43.6151 75.8463 45.9056C73.1991 49.1633 64.2649 57.8929 61.3123 60.1326C60.6251 60.667 59.3015 61.8632 58.3852 62.8049C56.5271 64.7137 54.1853 66.3934 52.1491 67.2842C51.4109 67.6151 50.7237 67.9968 50.6473 68.1495C50.5455 68.3022 50.8509 68.6076 51.2836 68.8367C52.0727 69.2184 52.1236 69.2184 53.7272 68.3786C54.618 67.9205 56.3998 66.7752 57.6979 65.8081C58.9706 64.8664 60.1669 64.1029 60.3451 64.1029C61.1087 64.1029 61.465 65.2736 61.3887 67.5641L61.3123 69.8293L57.6216 69.982C55.5853 70.0583 53.4981 70.211 52.9636 70.3383C52.1491 70.491 48.0001 70.211 45.2257 69.8038L44.3857 69.6766V66.6734C44.3857 65.0191 44.4621 63.3139 44.5385 62.8812C44.6912 62.1177 44.7166 62.0923 45.9384 62.245C46.6256 62.3213 47.1856 62.2959 47.1856 62.1941C47.1856 62.0923 46.6002 60.7434 45.862 59.2418C45.1493 57.7147 44.6403 56.3913 44.7166 56.315C44.8184 56.2132 45.1748 56.3404 45.5311 56.5695C45.9129 56.824 46.3711 56.9767 46.5747 56.9258C46.8802 56.8749 46.8038 56.6713 46.2947 55.9586C45.5566 54.9661 44.793 53.5917 44.5385 52.7264C44.3603 52.192 44.4112 52.1665 45.1239 52.421C45.5566 52.5737 46.0911 52.6501 46.3202 52.5992C46.702 52.5228 46.6765 52.421 46.1166 51.7593C45.4293 50.9449 44.8184 49.825 44.513 48.8579C44.3348 48.298 44.3857 48.2471 45.1239 48.3998C46.0148 48.578 46.142 48.2726 45.5311 47.4581C45.1748 47 44.793 45.9056 44.1312 43.5133C43.9785 42.9025 43.7494 42.4953 43.6221 42.6225C43.5203 42.7498 43.1894 43.6151 42.884 44.5313C42.5785 45.4475 41.9931 46.7455 41.5604 47.4072L40.8222 48.6034L41.9676 48.4507C42.6803 48.3235 43.1131 48.3744 43.1131 48.5271C43.1131 48.6543 42.5022 49.6214 41.7386 50.6395C40.5168 52.2938 40.415 52.5228 40.8477 52.5992C41.1277 52.6501 41.7131 52.5737 42.1458 52.421C42.5785 52.2683 42.9858 52.192 43.0367 52.2429C43.2149 52.421 42.604 53.4136 41.3822 55.017C40.7713 55.8314 40.3386 56.5695 40.415 56.6458C40.4913 56.7222 41.1022 56.6204 41.764 56.4168C42.4513 56.1877 43.0367 56.0605 43.0876 56.1114C43.1385 56.1368 42.7822 56.9003 42.2731 57.7911C41.3822 59.3945 40.3641 62.474 40.6441 62.7285C40.7204 62.8049 41.0004 62.754 41.2804 62.6013C41.5858 62.4486 42.044 62.3213 42.324 62.3213C42.8331 62.3213 42.8585 62.474 42.8585 65.0445C42.8585 66.5716 42.9349 68.2259 43.0112 68.7603C43.164 69.6511 43.1385 69.7275 42.3749 69.982C41.9422 70.1347 41.5858 70.2874 41.5858 70.3128C41.5858 70.6182 42.1713 71.9926 42.2985 71.9926C42.4004 71.9926 43.6221 72.0689 45.0221 72.1453C46.422 72.2471 52.6581 72.2725 58.8942 72.2216C73.8609 72.1198 109.954 72.1198 124.972 72.2216C131.564 72.2725 137.164 72.2471 137.469 72.1453C137.978 71.9926 138.564 71.0254 138.564 70.3128C138.564 70.1092 138.233 69.8802 137.8 69.7784L137.036 69.6257V65.8335V62.0414L138.462 62.2195L139.887 62.3977L139.073 60.947C138.589 60.1071 138.309 59.2927 138.386 59.0127C138.462 58.7328 138.284 58.0965 138.029 57.562C137.393 56.315 137.393 55.8568 138.029 56.2132C138.309 56.3404 138.844 56.4677 139.225 56.4677H139.938L139.276 55.755C138.386 54.8134 137.826 53.8717 137.546 52.93C137.418 52.4974 137.367 52.1411 137.393 52.1411C137.444 52.1411 137.902 52.3192 138.436 52.5483C138.946 52.7519 139.429 52.8791 139.48 52.8282C139.556 52.7773 139.2 52.1411 138.716 51.4284C137.826 50.0795 137.138 48.3998 137.393 48.1453C137.469 48.0689 137.826 48.1962 138.207 48.4253C139.149 49.0615 139.2 48.807 138.335 47.5345C137.927 46.9237 137.393 45.7275 137.164 44.8876C136.909 44.0477 136.655 43.2588 136.578 43.1315C136.527 43.0043 136.095 43.8441 135.637 44.9894C135.178 46.1347 134.618 47.28 134.389 47.5345C133.728 48.2726 133.88 48.5525 134.898 48.3998L135.815 48.2471L135.382 49.1124C135.127 49.596 134.593 50.4613 134.186 51.0467C133.448 52.0647 133.397 52.7264 134.058 52.5228C135.204 52.192 135.764 52.1665 135.764 52.4465C135.764 52.6246 135.229 53.5408 134.567 54.508C133.702 55.755 133.448 56.2895 133.651 56.4931C133.855 56.6967 134.16 56.6713 134.771 56.3659C135.815 55.8314 135.789 55.8314 135.509 56.6458C135.229 57.4093 135.229 57.3839 134.033 60.2598C133.575 61.2778 133.295 62.245 133.371 62.3722C133.448 62.4995 133.957 62.5504 134.491 62.4486L135.458 62.2959L135.56 65.6808C135.637 67.5387 135.764 69.2439 135.866 69.4729C136.018 69.8547 135.713 69.9311 133.168 70.0583C129.477 70.2874 127.441 70.2874 122.273 70.1601L118.074 70.0329L117.997 67.5896C117.921 65.1463 118.175 64.1029 118.786 64.1029C118.965 64.1029 120.517 65.07 122.248 66.2662C126.651 69.3202 127.211 69.5748 128.408 68.9385C129.222 68.4804 128.968 67.9714 127.568 67.2587C125.735 66.3425 122.986 64.3319 121.001 62.474C120.084 61.6087 118.379 60.1071 117.183 59.0891C113.823 56.2641 106.874 49.2651 104.329 46.1601C99.8744 40.6883 91.882 28.2429 90.9656 25.2906C90.6602 24.298 90.0493 23.3818 89.693 23.3818C89.5912 23.3818 89.2094 24.1962 88.8275 25.2143ZM89.5912 31.4497C89.2348 36.0308 88.9803 36.9725 86.3077 43.7169C84.0423 49.4942 79.817 55.6532 75.5154 59.3945C72.4355 62.0923 71.2901 62.6013 68.1339 62.6522C66.7594 62.6776 64.9522 62.6013 64.1122 62.474C62.7886 62.2959 62.6613 62.245 63.145 61.9905C63.4504 61.8123 64.0613 61.2015 64.5449 60.6161C65.0031 60.0562 66.5812 58.4528 68.032 57.053C70.7047 54.5589 77.4753 47.2291 77.4753 46.8728C77.4753 46.7455 77.8571 46.2619 78.3153 45.7529C78.748 45.2439 79.6388 44.0986 80.2752 43.2079C80.9115 42.3425 81.7769 41.1209 82.2351 40.5356C82.6933 39.9247 83.2787 39.0085 83.5587 38.4486C83.8387 37.9141 84.4495 36.9979 84.9077 36.4125C85.3659 35.8526 86.5876 33.9947 87.6312 32.315C88.6748 30.6098 89.5657 29.2355 89.6421 29.2355C89.693 29.2355 89.6675 30.228 89.5912 31.4497ZM90.8384 40.8919C92.0856 45.7784 95.3437 52.3192 98.6272 56.4931C102.394 61.2269 103.005 62.0668 102.878 62.1941C102.827 62.2704 102.42 62.2195 101.987 62.0923L101.223 61.8632L102.445 64.0774C103.743 66.3934 104.201 67.666 103.743 67.666C103.438 67.666 101.656 66.6479 101.656 66.4698C101.656 66.4189 101.783 66.4443 101.962 66.5461C102.598 66.9533 101.452 65.6553 100.129 64.4846C97.3545 62.0414 96.1836 60.3107 93.7146 55.0679C92.0601 51.5557 91.322 49.087 90.4566 44.175C90.2784 43.2333 90.0493 42.4698 89.9475 42.4698C89.8457 42.4698 89.6421 43.4624 89.4639 44.684C88.6748 50.0795 87.7585 53.1845 85.5695 57.5875C83.4569 61.8632 82.1842 63.7211 78.4934 67.8696L77.0935 69.4475H74.4463H71.8246L71.9773 68.6076C72.0537 68.175 72.181 67.0297 72.2828 66.088L72.4609 64.3828L73.7591 63.7211C75.1336 63.0339 78.9007 59.8271 79.8425 58.5546C80.1479 58.122 80.8861 57.0785 81.4715 56.2386C82.0824 55.3987 82.6933 54.6352 82.8205 54.5589C82.9732 54.4571 83.4314 53.6935 83.8896 52.8282C84.3223 51.9629 84.9332 50.894 85.2386 50.4868C85.9004 49.5705 88.4967 44.0986 89.0057 42.4698C89.2094 41.8335 89.5148 40.6628 89.693 39.8484C89.8711 39.0594 90.0748 38.4486 90.1511 38.5249C90.2275 38.6013 90.5329 39.6448 90.8384 40.8919ZM94.2491 59.6744C95.7509 62.8303 97.4817 65.299 99.7471 67.4878L101.783 69.4984L99.798 69.3457C97.5326 69.1675 96.9472 68.8621 95.6236 66.9788C93.3583 63.7975 91.4747 58.2747 91.1184 53.6681L90.9402 51.7593L92.111 54.6861C92.7474 56.2895 93.6892 58.5546 94.2491 59.6744ZM106.441 60.2853C107.052 60.7434 108.274 61.5069 109.114 61.965C110.285 62.6013 110.565 62.8303 110.259 62.9576C109.623 63.2121 107.358 62.0923 105.678 60.7179C104.456 59.6999 103.234 58.351 99.7726 54.1771C99.4926 53.8208 100.613 54.8643 102.292 56.4931C103.972 58.122 105.856 59.8271 106.441 60.2853ZM88.6494 55.3733C88.2421 58.3001 87.5803 60.4889 85.9258 64.4083C85.0095 66.597 84.0677 68.6331 83.8387 68.9385C83.3041 69.6511 81.3697 69.9565 81.1406 69.3457C80.9879 68.9385 81.2424 68.4549 83.5841 64.7391C85.7986 61.2015 87.7076 57.1803 88.573 54.228C88.8021 53.4645 88.8275 54.0499 88.6494 55.3733ZM115.783 61.2269C116.419 61.7105 116.47 61.7868 116.037 61.7868C115.732 61.7868 114.917 61.1251 114.001 60.0817L112.499 58.3765L113.747 59.5217C114.459 60.158 115.376 60.9215 115.783 61.2269ZM69.5847 65.299C69.5847 65.5535 69.4829 66.1644 69.3556 66.6479C69.2284 67.1315 69.0502 67.9714 68.9484 68.4804L68.7956 69.4475H66.2757H63.7304V67.2842V65.1463L65.9703 65.0445C67.1921 65.0191 68.4902 64.9427 68.8975 64.9173C69.4065 64.8918 69.5847 64.9936 69.5847 65.299ZM101.02 65.8844C101.274 66.1644 101.427 66.3934 101.351 66.3934C101.274 66.3934 101.02 66.1644 100.765 65.8844C100.511 65.6044 100.358 65.3754 100.434 65.3754C100.511 65.3754 100.765 65.6044 101.02 65.8844Z" fill="#EDDEA3"/>
<path id="Vector_7" d="M71.341 26.3855C70.7302 27.0473 69.3811 28.5997 68.363 29.8214C67.3448 31.043 65.6904 32.6973 64.6468 33.4863C63.6286 34.3007 62.3051 35.6241 61.6942 36.4131C61.1087 37.2021 60.0142 38.4746 59.2506 39.2127C57.3925 40.9942 57.2398 41.2996 57.7998 42.0886C58.0543 42.4194 58.4361 42.7249 58.6652 42.7249C58.9197 42.7249 60.3451 41.2742 61.8723 39.4672C63.425 37.6856 65.4358 35.5478 66.3776 34.7333C67.3194 33.9189 69.0248 32.1883 70.1702 30.9157C71.2901 29.6432 72.3337 28.5488 72.461 28.4979C72.9192 28.3198 72.5119 35.1151 72.0283 36.0568C71.4174 37.253 70.9847 40.6379 71.341 41.5032C71.6465 42.3431 72.3846 42.4449 72.5628 41.7068C72.7155 41.1215 72.9701 41.0706 73.3773 41.5541C73.9118 42.2158 75.0064 41.6559 77.119 39.6199C78.9007 37.8892 81.2425 34.9115 81.6752 33.7662C81.7515 33.5626 81.3443 33.0536 80.5807 32.4682C79.8934 31.9592 77.9081 30.1013 76.1518 28.3452C74.3955 26.5891 72.8428 25.1639 72.7155 25.1639C72.5628 25.1639 71.9519 25.7238 71.341 26.3855Z" fill="#EDDEA3"/>
<path id="Vector_8" d="M104.507 26.9959C97.5076 33.5367 97.9658 33.0532 98.373 33.7912C99.0603 35.0129 99.4675 34.8093 103.133 31.2207L106.62 27.8358L106.696 29.7955C106.773 32.0097 106.442 32.9005 104.838 34.8347C103.693 36.209 103.107 37.3289 103.286 37.787C103.515 38.3469 103.769 38.2196 105.398 36.7435C106.238 35.98 107.002 35.4455 107.104 35.5219C107.18 35.5982 107.256 36.2599 107.256 36.9726C107.256 38.805 107.536 40.2048 107.867 40.103C108.02 40.0521 108.402 39.314 108.733 38.4487C109.063 37.5834 109.42 36.8708 109.522 36.8708C110.031 36.8708 110.667 38.0415 111.482 40.4593C112.703 43.9969 113.289 44.9132 115.681 47.0765L117.718 48.9089L117.056 47.4073C115.529 44.0224 115.732 44.0224 118.43 47.4328C119.449 48.7562 120.518 50.0287 120.772 50.2578C121.179 50.6396 121.256 50.6141 121.612 49.876C121.841 49.4688 122.019 48.9598 122.019 48.7562C122.019 48.5781 122.376 47.8909 122.808 47.2292L123.572 46.0584L123.037 45.015C122.63 44.2005 122.554 43.717 122.681 42.7753C122.834 41.6046 122.808 41.5282 121.867 40.6884C117.412 36.8453 113.798 33.0786 109.318 27.7085C107.791 25.8761 107.053 25.1635 106.696 25.1635C106.569 25.1635 105.576 25.9779 104.507 26.9959Z" fill="#EDDEA3"/>
<path id="Vector_9" d="M126.982 33.5117C126.753 34.3007 126.091 35.8532 125.556 36.9221C124.996 38.0165 124.564 38.9581 124.564 39.0345C124.564 39.289 125.378 39.1617 126.116 38.7545C126.549 38.5509 126.956 38.4237 127.033 38.5C127.211 38.6527 125.76 41.5032 124.767 42.9284C124.36 43.5393 124.08 44.0992 124.156 44.201C124.309 44.3537 125.709 44.0228 126.676 43.6156C127.465 43.2847 127.16 44.1246 125.582 46.517C124.742 47.815 124.029 49.0111 123.978 49.1638C123.902 49.5965 125.047 49.3929 126.04 48.7821C126.651 48.4003 126.855 48.3749 126.855 48.6294C126.855 49.1384 125.276 51.7089 124.182 52.9814L123.266 54.0504L124.156 54.1267C124.793 54.1776 125.327 54.0249 125.887 53.6432L126.676 53.0578L126.524 53.9486C126.422 54.4321 125.709 55.7556 124.946 56.8754C124.182 58.0207 123.546 59.0387 123.546 59.1405C123.546 59.2423 124.233 59.2423 125.073 59.1405L126.6 58.9624V61.6092C126.6 64.4088 126.778 64.9433 127.822 65.2487L128.382 65.4014V62.1946V58.9624L129.782 59.1405C130.545 59.2169 131.283 59.2423 131.436 59.1405C131.589 59.0387 131.258 58.3515 130.647 57.4608C129.578 55.8828 128.662 54.0249 128.636 53.465C128.636 53.236 129.018 53.3632 129.731 53.7959C130.774 54.4067 131.691 54.6357 131.691 54.2794C131.691 54.1776 131.08 53.1342 130.316 51.9125C129.553 50.7163 128.84 49.3929 128.738 48.9857L128.56 48.2731L129.756 48.9602C131.538 50.0037 131.716 49.5202 130.291 47.4078C129.171 45.728 128.407 43.8956 128.687 43.5902C128.789 43.5138 129.298 43.692 129.884 43.9719C131.563 44.8372 131.818 44.6591 130.749 43.2847C129.782 42.0122 128.255 38.9581 128.484 38.7036C128.56 38.6273 129.094 38.7545 129.654 38.9836C130.214 39.1872 130.673 39.2635 130.673 39.1363C130.673 39.009 130.113 37.7874 129.425 36.4131C128.738 35.0642 128.102 33.5626 128 33.1299C127.745 31.832 127.491 31.9338 126.982 33.5117Z" fill="#EDDEA3"/>
<path id="Vector_10" d="M51.9455 33.4863C51.5891 34.657 50.9783 35.9804 49.731 38.1438C49.0692 39.289 49.4256 39.6708 50.6219 39.0854C51.131 38.8564 51.64 38.6528 51.7673 38.6528C52.1491 38.6528 51.0546 41.1978 49.9601 42.7758C49.4256 43.5902 48.9674 44.3028 48.9674 44.3792C48.9674 44.6337 50.1383 44.481 50.7492 44.1247C52.3782 43.183 52.1746 44.2774 50.2146 46.9751C49.5274 47.9168 48.9674 48.7821 48.9674 48.9094C48.9674 49.3929 49.8838 49.3929 50.8001 48.9094C52.0473 48.1968 52.0473 48.5785 50.7492 50.5637C49.3492 52.7524 48.9165 53.6687 49.0692 54.0759C49.2474 54.5594 49.731 54.5085 50.4946 53.9232C50.851 53.6432 51.2837 53.4141 51.4619 53.4141C52.0218 53.4141 51.5891 54.3813 50.0874 56.6209C49.3238 57.7662 48.7129 58.7588 48.7129 58.8606C48.7129 58.9369 49.4001 59.0133 50.2401 59.0133H51.7673V61.9401V64.8669H52.6582H53.5491V61.9401C53.5491 58.6315 53.5236 58.6824 55.6617 59.2932C56.8071 59.5987 57.0616 59.4714 56.578 58.8097C54.2618 55.6538 52.9382 53.1596 53.6 53.1596C53.7272 53.1596 54.3381 53.5159 54.949 53.9486C55.5599 54.3813 56.2217 54.6867 56.4508 54.6358C56.7817 54.5849 56.5017 53.9995 55.2035 51.9126C54.2872 50.4364 53.5491 48.9857 53.5491 48.6294V48.0186L54.3127 48.6549C56.069 50.1565 57.0362 49.7493 55.7635 48.0441C54.6436 46.5679 53.6509 44.8118 53.4472 43.9211C53.2436 43.0812 53.2945 43.0812 54.4654 43.8701C55.3308 44.4555 56.3489 44.71 56.3489 44.3537C56.3489 44.2519 55.9671 43.6665 55.4835 43.0048C54.4654 41.605 53.5491 39.8489 53.5491 39.289C53.5491 38.9836 53.7527 38.9327 54.5672 39.06C55.1272 39.1618 55.5853 39.1363 55.5853 39.06C55.5853 38.9582 55.1272 38.0928 54.5927 37.1766C54.0581 36.235 53.3963 34.8352 53.1673 34.0716C52.5564 32.1374 52.3782 32.0356 51.9455 33.4863Z" fill="#EDDEA3"/>
<path id="Vector_11" d="M44.3352 74.2071C43.2152 74.3343 43.1643 74.5379 43.9025 75.7087L44.437 76.574H89.846H135.281L135.739 75.4796L136.197 74.4107L134.517 74.258C132.684 74.0798 45.8878 74.0289 44.3352 74.2071Z" fill="#EDDEA3"/>
<path id="Vector_12" d="M45.6582 78.5849C45.6582 78.6358 45.9127 79.1703 46.2182 79.7811L46.7782 80.9009H50.5962C52.7088 80.9009 72.028 80.9264 93.5108 80.9264C130.266 80.9518 132.582 80.9264 132.836 80.5192C132.964 80.2647 133.32 79.7048 133.626 79.2721L134.16 78.4577H89.9218C65.5628 78.4831 45.6582 78.534 45.6582 78.5849Z" fill="#EDDEA3"/>
<path id="Vector_13" d="M48.7129 83.1406C48.7129 83.2678 49.0692 83.8532 49.4765 84.4131L50.2401 85.482L88.8785 85.4566C110.107 85.4311 127.899 85.5075 128.382 85.6093C129.222 85.762 129.324 85.7111 130.164 84.5404C130.648 83.8786 131.106 83.2424 131.131 83.1151C131.182 83.0133 112.652 82.937 89.973 82.937C67.2685 82.937 48.7129 83.0388 48.7129 83.1406Z" fill="#EDDEA3"/>
<path id="Vector_14" d="M52.9886 87.4669C52.6068 87.6196 52.6577 87.7977 53.5231 88.7903L54.4903 89.9102L89.9471 89.8847L125.404 89.8593L126.371 88.7394L127.338 87.5941L124.869 87.4414C121.56 87.2124 53.5486 87.2633 52.9886 87.4669Z" fill="#EDDEA3"/>
<path id="Vector_15" d="M58.6653 92.0986L57.7744 92.2259L58.5635 92.8876C59.0216 93.2693 59.8616 93.8038 60.4725 94.0838C61.567 94.6182 61.8215 94.6182 89.9476 94.72L118.328 94.7964L119.474 94.211C120.772 93.5493 121.892 92.6585 121.688 92.4549C121.637 92.3786 120.848 92.2259 119.957 92.0986C118.201 91.8696 60.1161 91.8441 58.6653 92.0986Z" fill="#EDDEA3"/>
<path id="Vector_16" d="M70.1443 96.7052C67.4716 96.7815 65.1808 96.9088 65.1299 96.9851C64.9008 97.2142 68.7443 98.9448 70.9842 99.6574C72.1042 100.014 74.1659 100.675 75.5658 101.134C80.8347 102.89 83.6346 103.297 90.1253 103.297C93.816 103.297 94.5287 103.221 98.9831 102.279C105.525 100.93 109.241 99.7847 113.237 97.9268L115.019 97.1124L114.001 96.8833C112.779 96.6288 77.1185 96.4761 70.1443 96.7052ZM97.3286 99.2248C101.045 99.4793 102.903 99.861 102.47 100.294C102.114 100.65 75.4386 100.93 75.4386 100.574C75.4386 99.632 76.8131 99.4284 83.5837 99.2248C92.6197 98.9703 93.6124 98.9703 97.3286 99.2248Z" fill="#EDDEA3"/>
<path id="Vector_17" d="M9.87076 113.579C8.13993 114.114 5.62003 115.59 4.50008 116.709C3.17649 118.007 2.31107 119.713 1.64928 122.232C1.36929 123.301 0.962039 124.421 0.758411 124.726C0.402062 125.235 0.402062 125.337 0.834771 125.821C1.08931 126.101 1.59838 127.297 1.98018 128.493C2.99832 131.904 4.67825 134.245 7.09633 135.619C10.4562 137.528 14.147 137.63 19.2377 135.976C22.1648 135.034 22.2157 135.009 22.0375 134.372C21.8339 133.609 21.8594 128.035 22.0884 127.144C22.1648 126.813 22.6993 126.228 23.2848 125.846C24.9901 124.701 24.4556 124.574 18.2704 124.548C12.8997 124.548 12.7979 124.548 12.9761 125.057C13.0779 125.337 13.2052 126.177 13.2561 126.915C13.3579 128.01 13.4597 128.239 13.7906 128.137C14.0451 128.06 14.7833 127.933 15.4705 127.831C17.0232 127.628 17.1505 127.781 17.1505 130.351C17.1505 132.26 17.125 132.336 16.4632 132.591C16.056 132.743 15.0378 132.922 14.1979 132.998C11.0671 133.278 8.29265 131.624 7.19815 128.799C6.73998 127.653 6.61272 126.813 6.61272 124.803C6.58726 122.512 6.66362 122.13 7.27451 120.96C8.90353 117.88 12.0343 116.633 15.5469 117.677C17.1759 118.16 18.1177 118.898 18.2195 119.789C18.3468 120.858 18.7286 120.578 19.7467 118.669C21.1212 116.124 21.4267 115.081 20.8921 114.572C20.5103 114.19 20.4594 114.19 20.0013 114.724L19.5431 115.31L18.1432 114.623C15.4705 113.248 12.2125 112.841 9.87076 113.579Z" fill="#EDDEA3"/>
<path id="Vector_18" d="M25.4234 113.503C25.347 113.63 25.8052 114.215 26.4415 114.826L27.5869 115.946L27.5614 124.192C27.5614 133.914 27.4596 134.678 26.3142 135.619C24.7361 136.917 24.9652 136.943 33.823 136.994C38.3028 136.994 42.1718 137.121 42.4263 137.248C42.7826 137.426 42.859 137.324 42.859 136.612C42.859 136.128 43.0372 134.703 43.2663 133.456C44.0299 128.977 44.0299 129.257 43.3172 129.257C42.8336 129.257 42.579 129.486 42.2227 130.249C41.9936 130.809 41.4336 131.573 41.0264 131.98C40.2882 132.692 40.2627 132.692 36.2665 132.769L32.2703 132.871L32.2958 124.37C32.3213 118.669 32.4231 115.717 32.6012 115.386C32.754 115.081 33.1867 114.699 33.543 114.495C33.8994 114.317 34.2048 113.935 34.2048 113.706C34.2048 113.274 33.8994 113.248 29.8777 113.248C27.4851 113.274 25.4743 113.375 25.4234 113.503Z" fill="#EDDEA3"/>
<path id="Vector_19" d="M52.2758 113.528C52.2758 113.707 52.683 114.139 53.1667 114.47C53.6503 114.801 54.0575 115.157 54.0575 115.259C54.0575 115.361 53.5994 116.633 53.0139 118.059C52.0467 120.502 51.0286 123.276 48.1014 131.293C47.1087 134.042 46.8033 134.602 45.887 135.391C45.3015 135.925 44.8943 136.459 44.9961 136.612C45.1234 136.79 46.3706 136.892 48.6105 136.892C52.4794 136.892 52.9121 136.688 51.6649 135.391C50.8504 134.551 50.8504 134.042 51.5376 132.336L52.0976 131.038H55.992H59.8864L60.4209 132.845L60.9809 134.652L60.3191 135.569C59.9627 136.052 59.7337 136.561 59.81 136.688C59.8864 136.79 61.719 136.892 63.8826 136.892C68.337 136.892 68.4897 136.816 66.8352 135.161C66.097 134.423 65.6389 133.533 64.7735 131.166C64.1626 129.486 62.8135 125.923 61.7954 123.225C60.7518 120.553 59.7337 117.575 59.5046 116.659L59.0719 114.954L59.7591 114.343C60.1155 113.986 60.4209 113.605 60.4209 113.477C60.4209 113.325 58.7919 113.223 56.3484 113.223C53.2685 113.223 52.2758 113.299 52.2758 113.528ZM57.8756 125.516C58.2065 126.305 58.4101 127.017 58.3592 127.094C58.2828 127.144 57.1883 127.119 55.9156 127.043L53.5739 126.89L54.363 124.828C54.7702 123.683 55.3048 122.207 55.5084 121.494L55.9156 120.247L56.6029 122.131C56.9847 123.174 57.5447 124.701 57.8756 125.516Z" fill="#EDDEA3"/>
<path id="Vector_20" d="M69.5849 113.579C69.4322 113.732 69.7122 114.139 70.3231 114.648L71.2903 115.488L71.494 121.469C71.5958 124.752 71.5958 129.053 71.494 131.038C71.3158 134.55 71.2649 134.678 70.5776 135.492C70.1704 135.95 69.8395 136.536 69.8395 136.765C69.8395 137.146 69.9922 137.197 70.8067 137.045C71.3158 136.968 72.9194 136.892 74.3702 136.892C77.3228 136.892 77.5773 136.663 76.2283 135.238L75.4902 134.474L75.3883 128.162C75.2611 120.858 75.032 121.036 77.8319 125.999C80.6318 131.013 81.879 133.074 82.0826 133.074C82.2099 133.074 82.6426 132.311 83.0753 131.344C84.0425 129.206 84.3989 128.519 86.3334 125.083C87.1988 123.53 87.9369 122.156 87.9878 122.029C88.2678 121.291 88.2933 122.512 88.166 128.417C88.0387 134.678 88.0387 134.83 87.4533 135.441C87.1224 135.798 86.8933 136.281 86.9442 136.51C87.0206 136.917 87.4279 136.943 90.8386 136.943C93.5621 136.943 94.6566 136.866 94.733 136.637C94.7839 136.485 94.4276 135.976 93.9185 135.492L93.0022 134.652V125.49C93.0022 120.044 93.104 116.048 93.2567 115.641C93.384 115.284 93.8421 114.775 94.2748 114.546C95.7257 113.706 95.2675 113.477 92.1368 113.477C90.5586 113.477 88.7005 113.401 88.0387 113.325C86.8933 113.146 86.8424 113.172 87.1479 113.655C87.4279 114.088 87.1479 114.75 84.8825 119.076C83.4826 121.774 82.3117 124.116 82.3117 124.268C82.3117 124.421 81.8535 123.632 81.319 122.512C80.7845 121.392 79.6391 119.229 78.7737 117.702C77.9337 116.175 77.221 114.775 77.221 114.597C77.221 114.444 77.3992 114.164 77.6028 113.986C77.8319 113.808 77.9337 113.605 77.8828 113.528C77.6537 113.299 69.814 113.35 69.5849 113.579Z" fill="#EDDEA3"/>
<path id="Vector_21" d="M102.751 113.426C100.053 113.452 97.8382 113.579 97.8382 113.681C97.8382 113.808 98.2455 114.291 98.7545 114.775L99.6709 115.64L99.5181 125.159L99.3654 134.703L98.6018 135.492C97.1764 136.968 97.38 137.07 101.682 136.993C103.947 136.942 105.652 136.815 105.805 136.663C106.009 136.459 105.805 136.128 105.143 135.517L104.202 134.652V131.623V128.62L106.136 128.696C109.852 128.9 113.085 127.806 114.892 125.77C118.201 121.978 116.572 115.818 111.761 114.011C110.056 113.375 109.19 113.324 102.751 113.426ZM109.369 117.396C109.827 117.575 110.463 118.058 110.819 118.44C111.685 119.382 111.736 121.799 110.87 123.174C110.03 124.548 108.961 124.853 105.551 124.726L104.202 124.675V121.01V117.32L105.551 117.218C108.274 117.04 108.554 117.04 109.369 117.396Z" fill="#EDDEA3"/>
<path id="Vector_22" d="M119.931 113.401C119.015 113.554 119.015 114.139 119.957 114.598C120.364 114.827 120.746 115.157 120.822 115.387C120.924 115.59 120.975 120.044 120.975 125.287V134.831L120.211 135.467C119.753 135.849 119.473 136.307 119.524 136.561C119.6 136.969 119.957 137.02 123.546 136.918C126.04 136.867 127.567 136.74 127.669 136.561C127.771 136.409 127.414 135.874 126.88 135.365C125.633 134.22 125.582 133.813 125.607 124.931C125.633 116.634 125.76 115.666 126.982 114.623C128.509 113.325 128.28 113.223 124.258 113.249C122.247 113.274 120.313 113.35 119.931 113.401Z" fill="#EDDEA3"/>
<path id="Vector_23" d="M131.258 113.427C130.444 113.554 130.52 113.834 131.691 114.75L132.735 115.564L132.684 124.752C132.684 129.817 132.556 134.22 132.429 134.525C132.302 134.856 131.92 135.238 131.589 135.391C130.902 135.721 130.622 136.205 130.826 136.714C130.902 136.968 131.716 137.019 134.16 136.968C135.916 136.918 137.52 136.892 137.723 136.892C138.487 136.892 138.385 136.103 137.52 135.365L136.654 134.652L136.578 128.392C136.527 124.956 136.603 121.953 136.705 121.749C136.883 121.469 137.393 122.131 138.691 124.345C140.803 127.959 144.112 132.947 145.232 134.245C145.843 134.932 146.072 135.441 146.072 136.103V136.994H149.356C152.283 136.994 152.69 136.943 152.919 136.536C153.123 136.179 153.123 136.027 152.868 135.95C152.69 135.874 152.232 135.543 151.85 135.238L151.163 134.652L151.214 127.297C151.239 123.276 151.265 119.051 151.265 117.957L151.29 115.946L152.436 114.826C153.072 114.241 153.581 113.605 153.581 113.452C153.581 113.147 145.792 113.299 145.461 113.605C145.385 113.707 145.614 114.037 145.996 114.317C146.378 114.623 146.785 115.157 146.912 115.514C147.014 115.87 147.065 118.695 146.988 121.825L146.836 127.501L145.741 125.897C145.13 125.007 143.73 122.971 142.61 121.367C141.491 119.764 140.04 117.6 139.403 116.582C138.283 114.801 138.258 114.725 138.665 114.114C138.894 113.783 139.072 113.452 139.072 113.401C139.072 113.299 132.022 113.325 131.258 113.427Z" fill="#EDDEA3"/>
<path id="Vector_24" d="M163.992 113.809C159.766 115.336 157.043 118.263 156.127 122.284C155.974 122.971 155.643 123.964 155.439 124.473C155.109 125.236 155.109 125.516 155.338 125.796C155.516 126 155.872 127.043 156.127 128.087C157.323 132.871 160.046 135.747 164.297 136.765C167.352 137.478 170.152 137.198 174.479 135.722L176.668 134.984L176.54 131.624C176.413 127.858 176.591 127.043 177.788 126.178C178.678 125.567 178.729 124.982 177.966 124.829C176.769 124.549 167.072 124.549 167.199 124.804C167.25 124.931 167.504 125.72 167.733 126.509L168.166 127.985H169.948C171.653 127.985 171.704 128.01 171.551 128.545C171.475 128.876 171.399 129.894 171.399 130.81C171.399 132.77 171.399 132.77 168.828 132.999C166.181 133.228 164.679 132.744 163.126 131.192C161.599 129.665 160.963 127.858 160.963 125.109C160.963 121.826 162.312 119.332 164.73 118.135C167.555 116.736 171.424 117.499 172.493 119.663C173.053 120.782 173.359 120.833 173.74 119.892C173.893 119.51 174.402 118.365 174.86 117.321C175.344 116.303 175.726 115.31 175.726 115.132C175.726 114.598 174.988 114.471 174.351 114.878C173.817 115.234 173.613 115.209 171.781 114.318C169.108 113.071 166.537 112.893 163.992 113.809Z" fill="#EDDEA3"/>
<path id="Vector_25" d="M113.365 142.186C112.703 142.262 112.703 142.288 112.703 144.4C112.703 146.792 112.449 147.327 111.303 147.327C110.336 147.327 110.056 146.614 110.056 144.12C110.056 142.288 110.03 142.237 109.42 142.237C108.783 142.237 108.783 142.237 108.783 144.756C108.783 147.225 108.809 147.301 109.547 148.039C110.489 148.981 111.379 149.236 112.296 148.752C113.67 148.039 114.001 147.429 114.078 145.316C114.205 142.466 114.128 142.084 113.365 142.186Z" fill="#EDDEA3"/>
<path id="Vector_26" d="M42.4765 142.618C42.0692 142.822 41.3311 143.433 40.8729 143.967C40.1348 144.782 40.033 145.036 40.1348 145.876C40.3893 147.785 42.4001 149.414 44.0037 149.006C45.3527 148.676 46.9309 146.767 46.9309 145.494C46.9309 144.171 45.0473 142.236 43.7492 142.236C43.4692 142.236 42.9092 142.415 42.4765 142.618ZM44.7928 144.349C45.3782 144.858 45.4546 145.062 45.3018 145.876C44.9964 147.53 43.3165 148.116 42.3747 146.919C41.6874 146.054 41.6874 144.934 42.3492 144.273C43.0365 143.585 43.9528 143.636 44.7928 144.349Z" fill="#EDDEA3"/>
<path id="Vector_27" d="M59.2254 142.593C59.3272 142.848 59.4036 144.375 59.4036 146.003V148.981H61.4398H63.4761V148.294C63.4761 147.658 63.3743 147.581 62.2034 147.429C61.2108 147.301 60.9308 147.149 60.9308 146.818C60.9308 146.487 61.2108 146.334 62.0762 146.207C62.9925 146.054 63.2216 145.927 63.2216 145.52C63.2216 145.113 63.0434 145.036 61.9489 145.036C60.778 145.036 60.6762 144.985 60.6762 144.4C60.6762 143.84 60.778 143.789 62.1525 143.713C63.4252 143.637 63.6034 143.56 63.6797 143.051C63.7561 142.517 63.6797 142.491 61.8725 142.491C60.8035 142.491 59.7599 142.415 59.5054 142.313C59.149 142.186 59.0981 142.237 59.2254 142.593Z" fill="#EDDEA3"/>
<path id="Vector_28" d="M75.4385 145.672V149.108H76.0748C76.6857 149.108 76.7112 149.057 76.7112 147.25L76.7366 145.418L78.5438 147.327L80.3765 149.235L80.5546 148.497C80.6564 148.09 80.7837 146.563 80.8092 145.061L80.8601 142.364L80.1728 142.287C79.5619 142.211 79.511 142.287 79.4856 143.178C79.4601 143.713 79.3838 144.476 79.282 144.909L79.1292 145.647L77.9838 144.298C77.3475 143.56 76.533 142.796 76.1512 142.593L75.4385 142.211V145.672Z" fill="#EDDEA3"/>
<path id="Vector_29" d="M100.205 145.724V149.109H100.943C101.63 149.109 101.656 149.058 101.656 147.963C101.656 147.327 101.758 146.818 101.885 146.818C102.012 146.818 102.572 147.353 103.132 147.989C103.972 148.981 104.227 149.134 104.939 149.058L105.779 148.981L104.838 147.785L103.896 146.564L104.685 145.673C105.627 144.578 105.652 144.273 104.863 143.331C104.303 142.695 104.049 142.619 102.216 142.491L100.205 142.364V145.724ZM103.616 144.171C103.87 144.833 103.336 145.418 102.521 145.418C101.885 145.418 101.783 145.316 101.707 144.578C101.63 143.789 101.656 143.764 102.547 143.764C103.158 143.764 103.514 143.891 103.616 144.171Z" fill="#EDDEA3"/>
<path id="Vector_30" d="M118.227 142.899C117.692 143.357 117.438 143.789 117.438 144.273C117.438 144.909 117.667 145.138 118.914 145.876C119.703 146.334 120.365 146.894 120.365 147.098C120.365 147.607 119.296 147.683 118.583 147.225C118.252 146.996 117.845 146.818 117.692 146.818C117.132 146.818 117.463 147.81 118.252 148.472C119.143 149.236 120.034 149.21 121.129 148.421C122.554 147.403 122.045 145.876 119.958 144.858C118.329 144.069 118.481 143.611 120.314 143.713C121.612 143.789 121.765 143.738 121.765 143.306C121.765 142.975 121.485 142.695 120.976 142.517C119.729 142.084 119.067 142.186 118.227 142.899Z" fill="#EDDEA3"/>
<path id="Vector_31" d="M125.074 142.593C125.074 142.797 125.023 143.127 124.921 143.331C124.819 143.586 125.074 143.738 125.812 143.866L126.855 144.018L126.804 146.512C126.754 148.879 126.779 148.981 127.314 149.057C127.848 149.134 127.873 149.083 127.873 146.462V143.764H128.739C129.452 143.764 129.604 143.662 129.706 143.127C129.782 142.797 129.782 142.44 129.706 142.364C129.63 142.288 128.561 142.237 127.314 142.237C125.557 142.237 125.074 142.313 125.074 142.593Z" fill="#EDDEA3"/>
<path id="Vector_32" d="M132.913 145.673C132.862 148.447 132.913 149.083 133.168 148.981C133.371 148.905 133.728 148.854 134.008 148.854C134.466 148.854 134.491 148.625 134.491 145.546V142.237H133.753H132.99L132.913 145.673Z" fill="#EDDEA3"/>
<path id="Vector_33" d="M140.218 142.542C139.251 143.051 138.309 144.094 138.055 144.934C137.826 145.621 137.851 145.978 138.258 146.919C138.844 148.192 139.607 148.803 140.931 149.032C141.644 149.134 141.949 149.032 142.662 148.396L143.502 147.657L142.916 147.352C142.458 147.098 142.178 147.098 141.618 147.327C140.447 147.81 139.327 146.919 139.327 145.469C139.327 144.273 140.6 143.662 142.204 144.094C143.247 144.374 143.451 143.611 142.535 142.822C141.796 142.186 141.033 142.084 140.218 142.542Z" fill="#EDDEA3"/>
<path id="Vector_34" d="M30.3857 145.673C30.3857 148.32 30.4621 148.905 30.7675 149.032C30.9966 149.109 31.2257 149.134 31.2766 149.083C31.3275 149.032 31.4039 148.141 31.4548 147.123C31.5057 146.131 31.5821 145.291 31.6584 145.291C31.7348 145.316 32.0911 145.775 32.4729 146.309C32.8547 146.869 33.2874 147.327 33.4147 147.327C33.5165 147.327 33.9492 146.843 34.3565 146.233L35.0946 145.164L35.171 147.123C35.2474 149.109 35.3237 149.261 36.0873 148.956C36.4182 148.829 36.4946 148.345 36.4946 146.436C36.4946 145.138 36.4182 143.713 36.3419 143.28C36.0873 142.084 35.2728 142.211 34.331 143.637C33.9238 144.248 33.4911 144.782 33.3893 144.782C33.2874 144.782 32.8547 144.273 32.422 143.637C31.862 142.797 31.4548 142.491 31.0221 142.491H30.3857V145.673Z" fill="#EDDEA3"/>
<path id="Vector_35" d="M50.4433 144.502C50.4942 145.596 50.4179 147.072 50.2906 147.785L50.0615 149.057L51.4869 148.93C53.5487 148.752 54.465 148.421 55.2031 147.556C56.0176 146.563 56.0431 145.163 55.254 143.993C54.4904 142.847 53.7268 142.491 51.8942 142.491H50.367L50.4433 144.502ZM53.2941 144.145C55.254 145.163 54.7704 147.123 52.5305 147.378C51.9196 147.454 51.8942 147.403 51.8178 145.596C51.7415 143.56 51.8942 143.407 53.2941 144.145Z" fill="#EDDEA3"/>
<path id="Vector_36" d="M66.9885 145.596C67.0394 147.327 67.0903 148.752 67.1157 148.752C67.1412 148.778 67.4212 148.88 67.7266 148.956C68.2102 149.109 68.2866 149.032 68.363 148.167C68.4648 146.793 69.2284 146.742 70.1447 148.091C70.5774 148.701 71.061 149.109 71.3665 149.109C72.0028 149.109 72.0028 148.88 71.3156 147.48L70.781 146.36L71.3156 145.673C72.0792 144.706 72.0283 143.942 71.0865 143.153C70.4247 142.593 70.0683 142.491 68.6175 142.491H66.9121L66.9885 145.596ZM69.9411 143.917C70.9083 144.298 70.1192 145.647 69.0247 145.495C68.5666 145.444 68.4139 145.24 68.363 144.578C68.2866 143.866 68.363 143.764 68.9229 143.764C69.2538 143.764 69.712 143.84 69.9411 143.917Z" fill="#EDDEA3"/>
<path id="Vector_37" d="M90.0747 143.23C89.871 144.248 89.3111 144.782 88.522 144.782C87.8093 144.782 87.7329 145.087 88.3184 145.571C88.6238 145.826 88.7002 146.284 88.6238 147.505C88.5729 148.396 88.5984 149.109 88.6747 149.109C88.7511 149.109 89.1583 148.676 89.5911 148.167L90.3801 147.225L91.3473 148.04C91.8564 148.498 92.34 148.829 92.3909 148.778C92.4673 148.727 92.3909 148.116 92.2382 147.429C91.9837 146.36 92.0091 146.156 92.3909 145.876C92.6455 145.698 93.0018 145.546 93.2055 145.546C93.9691 145.546 93.2818 144.935 92.2382 144.68C91.3219 144.451 91.0928 144.248 90.8637 143.586C90.4565 142.441 90.2783 142.339 90.0747 143.23Z" fill="#EDDEA3"/>
<path id="Vector_38" d="M151.265 145.444L150.604 146.105L151.214 147.225C151.571 147.836 151.902 148.345 152.003 148.345C152.08 148.345 152.36 148.141 152.614 147.912C153.2 147.378 157.603 147.022 162.363 147.123C164.196 147.174 167.25 147.174 169.185 147.123C172.061 147.072 172.723 146.996 172.85 146.691C172.926 146.462 172.952 146.233 172.875 146.182C172.824 146.105 168.446 146.004 163.178 145.953C154.014 145.825 153.531 145.8 152.843 145.291C152.436 145.011 152.054 144.782 152.003 144.782C151.953 144.782 151.622 145.087 151.265 145.444Z" fill="#EDDEA3"/>
<path id="Vector_39" d="M11.6272 145.978C5.54385 146.055 5.1875 146.08 5.1875 146.538C5.1875 146.818 5.41658 147.073 5.77293 147.174C6.07837 147.251 10.2273 147.327 15.0126 147.327C23.4631 147.327 23.6922 147.302 24.1758 146.793C24.914 145.978 24.2776 145.8 20.9687 145.851C19.3651 145.902 15.1398 145.953 11.6272 145.978Z" fill="#EDDEA3"/>
<path id="Vector_40" d="M82.4644 148.141C82.2608 148.472 82.0063 149.032 81.9299 149.439C81.7772 150.05 81.8027 150.101 82.2099 149.948C82.9226 149.694 83.5844 148.803 83.508 148.243C83.4317 147.505 82.8972 147.454 82.4644 148.141Z" fill="#EDDEA3"/>
<path id="Vector_41" d="M61.5927 155.598C60.9564 157.201 60.4219 158.576 60.4219 158.652C60.4219 158.728 60.7019 158.779 61.0328 158.779C61.4909 158.779 61.6691 158.627 61.7455 158.194C61.7964 157.736 62 157.609 62.8909 157.558C63.8581 157.481 64.0108 157.558 64.2908 158.118C64.4944 158.601 64.7744 158.779 65.2835 158.779H65.9707L65.2326 156.972C64.3417 154.809 63.2218 152.671 62.9418 152.671C62.84 152.671 62.2291 153.995 61.5927 155.598ZM63.4763 156.031C63.4763 156.132 63.2472 156.234 62.9418 156.234C62.56 156.234 62.4582 156.132 62.56 155.827C62.6363 155.598 62.7127 155.293 62.7127 155.14C62.7381 154.809 63.4763 155.7 63.4763 156.031Z" fill="#EDDEA3"/>
<path id="Vector_42" d="M49.8835 153.461C49.4508 153.817 49.2217 154.224 49.2217 154.708C49.2217 155.319 49.4253 155.573 50.3671 156.133C51.7416 156.922 51.7161 157.38 50.3416 157.406C49.1708 157.406 49.0435 157.864 50.0107 158.576C50.9271 159.264 51.9452 158.958 52.4797 157.838C52.8615 157.049 52.8615 156.897 52.5052 156.286C52.3016 155.904 51.7161 155.37 51.1816 155.09C50.6725 154.81 50.2398 154.504 50.2398 154.377C50.2398 154.275 50.8507 154.199 51.6143 154.199C53.1924 154.199 53.5742 153.919 52.7343 153.334C51.9452 152.774 50.698 152.825 49.8835 153.461Z" fill="#EDDEA3"/>
<path id="Vector_43" d="M55.4582 153.181C55.3818 153.308 55.4327 153.69 55.6109 153.995C55.8145 154.377 55.8654 155.267 55.7382 156.795L55.5855 159.034L56.2982 158.881C56.68 158.78 57.0109 158.703 57.0109 158.678C57.0363 158.652 57.1127 157.354 57.1636 155.776L57.3163 152.926H56.4509C55.9927 152.926 55.5346 153.028 55.4582 153.181Z" fill="#EDDEA3"/>
<path id="Vector_44" d="M69.0504 153.358C67.0905 154.555 67.0651 157.125 68.9995 158.296C70.5777 159.288 72.6394 158.474 72.6394 156.871C72.6394 155.903 72.2321 155.471 71.3158 155.471C70.5013 155.471 70.3486 156.031 70.9849 156.667C71.4685 157.125 71.2649 157.507 70.5013 157.507C69.6868 157.507 69.0759 156.743 69.0759 155.7C69.0759 154.478 69.4577 154.198 71.0358 154.198C72.4867 154.198 72.7157 153.944 71.8249 153.333C71.0867 152.824 69.8904 152.824 69.0504 153.358Z" fill="#EDDEA3"/>
<path id="Vector_45" d="M75.1588 153.053C75.0825 153.104 75.1334 154.071 75.2352 155.14C75.3625 156.235 75.3879 157.507 75.3116 157.991L75.1588 158.856L76.1261 158.703C76.6606 158.602 77.3987 158.525 77.806 158.525C78.3151 158.525 78.4932 158.398 78.4932 158.016C78.4932 157.482 77.526 157.075 76.8133 157.355C76.457 157.482 76.4315 157.253 76.457 155.548C76.4824 154.453 76.5079 153.41 76.4824 153.232C76.457 152.952 75.4134 152.799 75.1588 153.053Z" fill="#EDDEA3"/>
<path id="Vector_46" d="M80.9113 153.741C80.8349 154.199 80.784 155.497 80.8349 156.617C80.9113 158.449 80.9622 158.653 81.4204 158.653C81.904 158.653 81.9294 158.475 81.9294 155.853C81.9294 153.435 81.8785 153.054 81.4967 152.977C81.1913 152.926 81.0131 153.13 80.9113 153.741Z" fill="#EDDEA3"/>
<path id="Vector_47" d="M93.5877 153.104L92.4932 153.206V155.878V158.525L93.7658 158.576C94.4785 158.601 95.2421 158.627 95.4967 158.627C95.8021 158.652 95.9294 158.448 95.9294 158.016C95.9294 157.456 95.8021 157.379 94.9876 157.303C94.2495 157.252 94.0204 157.1 94.0204 156.743C94.0204 156.387 94.224 156.234 94.8349 156.183C96.0058 156.081 95.9803 155.572 94.784 155.369C93.9949 155.242 93.7658 155.089 93.7658 154.707C93.7658 154.3 93.944 154.198 94.6313 154.198C95.5221 154.198 96.2348 153.664 95.9294 153.18C95.853 153.053 95.5221 152.951 95.2167 152.976C94.9112 153.002 94.1731 153.053 93.5877 153.104Z" fill="#EDDEA3"/>
<path id="Vector_48" d="M84.9073 155.904C84.9836 158.22 85.06 158.653 85.3909 158.729C85.7218 158.78 85.8745 158.525 86.0018 157.507L86.1799 156.209L87.3508 157.176C88.0126 157.711 88.6998 158.296 88.9035 158.474C89.6162 159.162 89.7943 158.653 89.718 156.082C89.6925 154.708 89.5907 153.486 89.5398 153.384C89.4634 153.257 89.1835 153.181 88.9035 153.181C88.4962 153.181 88.4198 153.359 88.4198 154.479V155.802L87.0454 154.479C84.9582 152.544 84.8309 152.621 84.9073 155.904Z" fill="#EDDEA3"/>
<path id="Vector_49" d="M102.827 154.122C102.75 154.656 102.674 155.929 102.674 156.921C102.674 158.728 102.699 158.779 103.285 158.779C103.845 158.779 103.921 158.652 103.997 157.685C104.074 156.616 104.074 156.616 105.168 156.54L106.237 156.463V157.609C106.237 158.576 106.314 158.779 106.721 158.779C107.128 158.779 107.205 158.499 107.332 156.667C107.612 153.257 107.612 153.18 106.874 153.18C106.314 153.18 106.237 153.282 106.237 154.198V155.216H105.092H103.947V154.198C103.947 153.384 103.845 153.18 103.463 153.18C103.107 153.18 102.954 153.435 102.827 154.122Z" fill="#EDDEA3"/>
<path id="Vector_50" d="M110.361 155.853L110.437 158.525H111.328C111.811 158.525 112.651 158.602 113.186 158.678C114.026 158.831 114.128 158.78 114.128 158.322C114.128 157.711 113.44 157.253 112.499 157.253C112.015 157.253 111.837 157.125 111.837 156.744C111.837 156.311 112.015 156.235 112.855 156.235C113.695 156.235 113.873 156.158 113.873 155.726C113.873 155.293 113.695 155.217 112.728 155.217C111.761 155.217 111.582 155.14 111.582 154.708C111.582 154.25 111.761 154.199 112.982 154.199C114.204 154.199 114.382 154.148 114.382 153.69C114.382 153.232 114.204 153.181 112.321 153.181H110.259L110.361 155.853Z" fill="#EDDEA3"/>
<path id="Vector_51" d="M116.902 153.359C116.775 154.937 117.029 158.678 117.259 158.831C117.793 159.162 118.073 158.882 118.149 157.94C118.2 157.431 118.302 156.998 118.404 156.998C118.48 156.998 119.066 157.482 119.651 158.067C120.415 158.831 120.822 159.06 121 158.882C121.204 158.678 121.127 158.322 120.746 157.685L120.186 156.744L120.72 156.082C121.407 155.191 121.382 154.58 120.618 153.817C120.109 153.282 119.753 153.181 118.455 153.181C117.615 153.181 116.928 153.257 116.902 153.359ZM119.855 154.962C119.855 155.497 119.728 155.624 119.04 155.675C118.251 155.751 118.2 155.7 118.2 154.962C118.2 154.224 118.251 154.173 119.04 154.25C119.728 154.3 119.855 154.428 119.855 154.962Z" fill="#EDDEA3"/>
<path id="Vector_52" d="M123.801 155.904V158.653L125.735 158.703C127.593 158.729 127.67 158.703 127.517 158.194C127.441 157.889 127.364 157.558 127.364 157.456C127.364 157.38 126.906 157.355 126.346 157.431C125.379 157.558 125.328 157.533 125.328 156.896C125.328 156.311 125.43 156.235 126.219 156.235C126.804 156.235 127.11 156.107 127.11 155.878C127.11 155.497 126.575 155.217 125.812 155.217C125.506 155.217 125.328 155.039 125.328 154.733C125.328 154.3 125.532 154.224 126.55 154.148C127.415 154.097 127.746 153.97 127.746 153.69C127.746 153.384 127.313 153.282 125.786 153.232L123.801 153.155V155.904Z" fill="#EDDEA3"/>
</g>
</svg>
