<svg width="179" height="160" viewBox="0 0 179 160" fill="none" xmlns="http://www.w3.org/2000/svg">
<g id="assets/logo">
<path id="Vector" d="M89.6677 0.569744C89.6168 0.620645 88.3187 0.722448 86.766 0.747898C83.9407 0.82425 83.2534 0.900602 79.2572 1.63867C71.2394 3.08936 61.5416 7.28872 55.28 11.9971C50.0621 15.891 46.4731 19.7341 42.8078 25.2569C37.3862 33.5283 34.7391 41.9016 34.0773 53.0235C33.6191 60.3279 35.5536 69.5156 39.0662 76.6927C41.5352 81.8082 45.5568 87.611 49.0185 91.0977C58.2327 100.387 69.814 106.343 82.6935 108.43C85.3406 108.837 93.5112 108.837 96.4384 108.404C99.9764 107.895 105.016 106.699 108.554 105.579C116.954 102.881 126.066 96.9768 130.953 91.0723C134.008 87.3819 136.222 84.5315 136.655 83.6916C136.909 83.208 137.444 82.3936 137.826 81.91C140.142 79.0087 144.062 69.4392 145.029 64.4509C145.564 61.575 146.022 54.9323 145.818 52.6418C145.055 43.4287 143.858 38.5676 140.778 32.0013C137.393 24.697 129.986 15.8147 123.419 11.1063C120.161 8.79031 114.867 5.86348 111.66 4.64185C106.391 2.6567 99.8491 1.12966 95.2675 0.849701C93.9439 0.773349 92.1876 0.646096 91.3222 0.595194C90.4822 0.518842 89.7441 0.518842 89.6677 0.569744ZM97.3292 4.18374C103.336 4.94726 110.921 7.39052 116.038 10.1646C121.536 13.1424 128.383 18.996 132.251 24.0353C136.349 29.3544 139.887 36.6079 141.262 42.4361C143.782 53.049 143.349 62.5421 139.938 71.119C137.164 78.1688 134.822 82.1137 130.292 87.3819C126.703 91.5558 122.401 95.2716 118.252 97.7913C111.94 101.609 106.722 103.569 99.1619 104.994C95.802 105.63 94.8857 105.706 90.075 105.681C84.3734 105.656 81.599 105.35 77.1701 104.205C68.0577 101.812 58.2836 96.3151 52.0729 90.0543C41.866 79.7467 36.4445 66.2833 37.1062 52.769C37.3353 48.417 37.5899 46.5591 38.5825 42.4615C41.0261 32.3322 46.6768 23.2208 54.7964 16.2983C58.1054 13.4732 58.3345 13.3205 61.898 11.1827C65.5887 9.01936 67.7268 8.02679 72.0794 6.5761C80.5808 3.75108 88.1914 3.01301 97.3292 4.18374Z" fill="white"/>
<path id="Vector_2" d="M89.0314 11.3862C88.1659 11.9206 87.4023 13.2949 87.4023 14.3384C87.4023 15.3565 89.1332 17.0107 90.1768 17.0107C92.7985 17.0107 94.1984 14.0839 92.5185 12.226C91.8058 11.4625 90.8131 10.9026 90.1259 10.9026C89.9477 10.9026 89.4641 11.1316 89.0314 11.3862Z" fill="white"/>
<path id="Vector_3" d="M102.903 14.949C101.478 16.3742 102.165 18.8175 104.099 19.1993C104.761 19.3265 105.067 19.1993 105.754 18.5884C106.492 17.9267 106.619 17.6468 106.619 16.6287C106.619 15.6362 106.492 15.3308 105.907 14.8217C104.914 13.9819 103.845 14.0328 102.903 14.949Z" fill="white"/>
<path id="Vector_4" d="M119.448 23.5004C119.219 24.4421 119.041 24.6711 118.481 24.7984C116.929 25.1038 116.343 26.0709 117.616 26.2236C118.278 26.3 118.328 26.4018 118.405 27.4962C118.481 28.8196 118.608 28.9214 119.372 28.336C120.008 27.8525 120.467 27.8525 121.077 28.3869C121.561 28.8451 121.587 28.8196 121.408 27.6998C121.256 26.5545 121.256 26.529 122.146 26.0964C123.394 25.511 123.317 24.9511 121.968 24.8493C120.874 24.7729 120.874 24.7729 120.645 23.5513C120.365 21.9988 119.83 21.9734 119.448 23.5004Z" fill="white"/>
<path id="Vector_5" d="M59.9639 23.0166C59.6584 23.2202 59.4039 23.6783 59.4039 24.0092C59.4039 24.4928 59.1748 24.6709 58.3348 24.9509C57.0622 25.3835 56.9094 25.9944 58.0039 26.1725C58.6912 26.2998 58.7676 26.4016 58.8439 27.4196L58.9203 28.5649L59.5312 27.8014L60.1166 27.0633L60.9566 27.8268L61.7711 28.5903L61.6183 27.5214C61.4911 26.4779 61.5165 26.4016 62.4838 25.8671C63.5783 25.2563 63.5528 24.9 62.4329 24.9C61.7711 24.9 61.6183 24.7473 61.1856 23.7547C60.9056 23.1184 60.6511 22.6094 60.6257 22.6094C60.5748 22.6094 60.2693 22.7876 59.9639 23.0166Z" fill="white"/>
<path id="Vector_6" d="M88.8275 25.7143C88.0894 27.7503 84.8059 33.7567 82.6423 37.1161C81.0642 39.5594 77.7298 44.1151 75.8463 46.4056C73.1991 49.6633 64.2649 58.3929 61.3123 60.6326C60.6251 61.167 59.3015 62.3632 58.3852 63.3049C56.5271 65.2137 54.1853 66.8934 52.1491 67.7842C51.4109 68.1151 50.7237 68.4968 50.6473 68.6495C50.5455 68.8022 50.8509 69.1076 51.2836 69.3367C52.0727 69.7184 52.1236 69.7184 53.7272 68.8786C54.618 68.4205 56.3998 67.2752 57.6979 66.3081C58.9706 65.3664 60.1669 64.6029 60.3451 64.6029C61.1087 64.6029 61.465 65.7736 61.3887 68.0641L61.3123 70.3293L57.6216 70.482C55.5853 70.5583 53.4981 70.711 52.9636 70.8383C52.1491 70.991 48.0001 70.711 45.2257 70.3038L44.3857 70.1766V67.1734C44.3857 65.5191 44.4621 63.8139 44.5385 63.3812C44.6912 62.6177 44.7166 62.5923 45.9384 62.745C46.6256 62.8213 47.1856 62.7959 47.1856 62.6941C47.1856 62.5923 46.6002 61.2434 45.862 59.7418C45.1493 58.2147 44.6403 56.8913 44.7166 56.815C44.8184 56.7132 45.1748 56.8404 45.5311 57.0695C45.9129 57.324 46.3711 57.4767 46.5747 57.4258C46.8802 57.3749 46.8038 57.1713 46.2947 56.4586C45.5566 55.4661 44.793 54.0917 44.5385 53.2264C44.3603 52.692 44.4112 52.6665 45.1239 52.921C45.5566 53.0737 46.0911 53.1501 46.3202 53.0992C46.702 53.0228 46.6765 52.921 46.1166 52.2593C45.4293 51.4449 44.8184 50.325 44.513 49.3579C44.3348 48.798 44.3857 48.7471 45.1239 48.8998C46.0148 49.078 46.142 48.7726 45.5311 47.9581C45.1748 47.5 44.793 46.4056 44.1312 44.0133C43.9785 43.4025 43.7494 42.9953 43.6221 43.1225C43.5203 43.2498 43.1894 44.1151 42.884 45.0313C42.5785 45.9475 41.9931 47.2455 41.5604 47.9072L40.8222 49.1034L41.9676 48.9507C42.6803 48.8235 43.1131 48.8744 43.1131 49.0271C43.1131 49.1543 42.5022 50.1214 41.7386 51.1395C40.5168 52.7938 40.415 53.0228 40.8477 53.0992C41.1277 53.1501 41.7131 53.0737 42.1458 52.921C42.5785 52.7683 42.9858 52.692 43.0367 52.7429C43.2149 52.921 42.604 53.9136 41.3822 55.517C40.7713 56.3314 40.3386 57.0695 40.415 57.1458C40.4913 57.2222 41.1022 57.1204 41.764 56.9168C42.4513 56.6877 43.0367 56.5605 43.0876 56.6114C43.1385 56.6368 42.7822 57.4003 42.2731 58.2911C41.3822 59.8945 40.3641 62.974 40.6441 63.2285C40.7204 63.3049 41.0004 63.254 41.2804 63.1013C41.5858 62.9486 42.044 62.8213 42.324 62.8213C42.8331 62.8213 42.8585 62.974 42.8585 65.5445C42.8585 67.0716 42.9349 68.7259 43.0112 69.2603C43.164 70.1511 43.1385 70.2275 42.3749 70.482C41.9422 70.6347 41.5858 70.7874 41.5858 70.8128C41.5858 71.1182 42.1713 72.4926 42.2985 72.4926C42.4004 72.4926 43.6221 72.5689 45.0221 72.6453C46.422 72.7471 52.6581 72.7725 58.8942 72.7216C73.8609 72.6198 109.954 72.6198 124.972 72.7216C131.564 72.7725 137.164 72.7471 137.469 72.6453C137.978 72.4926 138.564 71.5254 138.564 70.8128C138.564 70.6092 138.233 70.3802 137.8 70.2784L137.036 70.1257V66.3335V62.5414L138.462 62.7195L139.887 62.8977L139.073 61.447C138.589 60.6071 138.309 59.7927 138.386 59.5127C138.462 59.2328 138.284 58.5965 138.029 58.062C137.393 56.815 137.393 56.3568 138.029 56.7132C138.309 56.8404 138.844 56.9677 139.225 56.9677H139.938L139.276 56.255C138.386 55.3134 137.826 54.3717 137.546 53.43C137.418 52.9974 137.367 52.6411 137.393 52.6411C137.444 52.6411 137.902 52.8192 138.436 53.0483C138.946 53.2519 139.429 53.3791 139.48 53.3282C139.556 53.2773 139.2 52.6411 138.716 51.9284C137.826 50.5795 137.138 48.8998 137.393 48.6453C137.469 48.5689 137.826 48.6962 138.207 48.9253C139.149 49.5615 139.2 49.307 138.335 48.0345C137.927 47.4237 137.393 46.2275 137.164 45.3876C136.909 44.5477 136.655 43.7588 136.578 43.6315C136.527 43.5043 136.095 44.3441 135.637 45.4894C135.178 46.6347 134.618 47.78 134.389 48.0345C133.728 48.7726 133.88 49.0525 134.898 48.8998L135.815 48.7471L135.382 49.6124C135.127 50.096 134.593 50.9613 134.186 51.5467C133.448 52.5647 133.397 53.2264 134.058 53.0228C135.204 52.692 135.764 52.6665 135.764 52.9465C135.764 53.1246 135.229 54.0408 134.567 55.008C133.702 56.255 133.448 56.7895 133.651 56.9931C133.855 57.1967 134.16 57.1713 134.771 56.8659C135.815 56.3314 135.789 56.3314 135.509 57.1458C135.229 57.9093 135.229 57.8839 134.033 60.7598C133.575 61.7778 133.295 62.745 133.371 62.8722C133.448 62.9995 133.957 63.0504 134.491 62.9486L135.458 62.7959L135.56 66.1808C135.637 68.0387 135.764 69.7439 135.866 69.9729C136.018 70.3547 135.713 70.4311 133.168 70.5583C129.477 70.7874 127.441 70.7874 122.273 70.6601L118.074 70.5329L117.997 68.0896C117.921 65.6463 118.175 64.6029 118.786 64.6029C118.965 64.6029 120.517 65.57 122.248 66.7662C126.651 69.8202 127.211 70.0748 128.408 69.4385C129.222 68.9804 128.968 68.4714 127.568 67.7587C125.735 66.8425 122.986 64.8319 121.001 62.974C120.084 62.1087 118.379 60.6071 117.183 59.5891C113.823 56.7641 106.874 49.7651 104.329 46.6601C99.8744 41.1883 91.882 28.7429 90.9656 25.7906C90.6602 24.798 90.0493 23.8818 89.693 23.8818C89.5912 23.8818 89.2094 24.6962 88.8275 25.7143ZM89.5912 31.9497C89.2348 36.5308 88.9803 37.4725 86.3077 44.2169C84.0423 49.9942 79.817 56.1532 75.5154 59.8945C72.4355 62.5923 71.2901 63.1013 68.1339 63.1522C66.7594 63.1776 64.9522 63.1013 64.1122 62.974C62.7886 62.7959 62.6613 62.745 63.145 62.4905C63.4504 62.3123 64.0613 61.7015 64.5449 61.1161C65.0031 60.5562 66.5812 58.9528 68.032 57.553C70.7047 55.0589 77.4753 47.7291 77.4753 47.3728C77.4753 47.2455 77.8571 46.7619 78.3153 46.2529C78.748 45.7439 79.6388 44.5986 80.2752 43.7079C80.9115 42.8425 81.7769 41.6209 82.2351 41.0356C82.6933 40.4247 83.2787 39.5085 83.5587 38.9486C83.8387 38.4141 84.4495 37.4979 84.9077 36.9125C85.3659 36.3526 86.5876 34.4947 87.6312 32.815C88.6748 31.1098 89.5657 29.7355 89.6421 29.7355C89.693 29.7355 89.6675 30.728 89.5912 31.9497ZM90.8384 41.3919C92.0856 46.2784 95.3436 52.8192 98.6272 56.9931C102.394 61.7269 103.005 62.5668 102.878 62.6941C102.827 62.7704 102.42 62.7195 101.987 62.5923L101.223 62.3632L102.445 64.5774C103.743 66.8934 104.201 68.166 103.743 68.166C103.438 68.166 101.656 67.1479 101.656 66.9698C101.656 66.9189 101.783 66.9443 101.962 67.0461C102.598 67.4533 101.452 66.1553 100.129 64.9846C97.3545 62.5414 96.1836 60.8107 93.7146 55.5679C92.0601 52.0557 91.322 49.587 90.4566 44.675C90.2784 43.7333 90.0493 42.9698 89.9475 42.9698C89.8457 42.9698 89.6421 43.9624 89.4639 45.184C88.6748 50.5795 87.7585 53.6845 85.5695 58.0875C83.4569 62.3632 82.1842 64.2211 78.4934 68.3696L77.0935 69.9475H74.4463H71.8246L71.9773 69.1076C72.0537 68.675 72.181 67.5297 72.2828 66.588L72.4609 64.8828L73.7591 64.2211C75.1336 63.5339 78.9007 60.3271 79.8425 59.0546C80.1479 58.622 80.8861 57.5785 81.4715 56.7386C82.0824 55.8987 82.6933 55.1352 82.8205 55.0589C82.9732 54.9571 83.4314 54.1935 83.8896 53.3282C84.3223 52.4629 84.9332 51.394 85.2386 50.9868C85.9004 50.0705 88.4967 44.5986 89.0057 42.9698C89.2094 42.3335 89.5148 41.1628 89.693 40.3484C89.8711 39.5594 90.0748 38.9486 90.1511 39.0249C90.2275 39.1013 90.5329 40.1448 90.8384 41.3919ZM94.2491 60.1744C95.7509 63.3303 97.4817 65.799 99.7471 67.9878L101.783 69.9984L99.798 69.8457C97.5327 69.6675 96.9472 69.3621 95.6236 67.4788C93.3583 64.2975 91.4747 58.7747 91.1184 54.1681L90.9402 52.2593L92.1111 55.1861C92.7474 56.7895 93.6892 59.0546 94.2491 60.1744ZM106.441 60.7853C107.052 61.2434 108.274 62.0069 109.114 62.465C110.285 63.1013 110.565 63.3303 110.259 63.4576C109.623 63.7121 107.358 62.5923 105.678 61.2179C104.456 60.1999 103.234 58.851 99.7726 54.6771C99.4926 54.3208 100.613 55.3643 102.292 56.9931C103.972 58.622 105.856 60.3271 106.441 60.7853ZM88.6494 55.8733C88.2421 58.8001 87.5803 60.9889 85.9258 64.9083C85.0095 67.097 84.0677 69.1331 83.8387 69.4385C83.3041 70.1511 81.3697 70.4565 81.1406 69.8457C80.9879 69.4385 81.2424 68.9549 83.5841 65.2391C85.7986 61.7015 87.7076 57.6803 88.573 54.728C88.8021 53.9645 88.8275 54.5498 88.6494 55.8733ZM115.783 61.7269C116.419 62.2105 116.47 62.2868 116.037 62.2868C115.732 62.2868 114.917 61.6251 114.001 60.5817L112.499 58.8765L113.747 60.0217C114.459 60.658 115.376 61.4215 115.783 61.7269ZM69.5847 65.799C69.5847 66.0535 69.4829 66.6644 69.3556 67.1479C69.2284 67.6315 69.0502 68.4714 68.9484 68.9804L68.7956 69.9475H66.2757H63.7304V67.7842V65.6463L65.9703 65.5445C67.1921 65.5191 68.4902 65.4427 68.8975 65.4173C69.4065 65.3918 69.5847 65.4936 69.5847 65.799ZM101.02 66.3844C101.274 66.6644 101.427 66.8934 101.351 66.8934C101.274 66.8934 101.02 66.6644 100.765 66.3844C100.511 66.1044 100.358 65.8754 100.434 65.8754C100.511 65.8754 100.765 66.1044 101.02 66.3844Z" fill="white"/>
<path id="Vector_7" d="M71.341 26.8855C70.7302 27.5473 69.3811 29.0997 68.363 30.3214C67.3448 31.543 65.6904 33.1973 64.6468 33.9863C63.6286 34.8007 62.3051 36.1241 61.6942 36.9131C61.1087 37.7021 60.0142 38.9746 59.2506 39.7127C57.3925 41.4942 57.2398 41.7996 57.7998 42.5886C58.0543 42.9194 58.4361 43.2249 58.6652 43.2249C58.9197 43.2249 60.3451 41.7742 61.8723 39.9672C63.425 38.1856 65.4358 36.0478 66.3776 35.2333C67.3194 34.4189 69.0248 32.6883 70.1702 31.4157C71.2901 30.1432 72.3337 29.0488 72.461 28.9979C72.9192 28.8198 72.5119 35.6151 72.0283 36.5568C71.4174 37.753 70.9847 41.1379 71.341 42.0032C71.6465 42.8431 72.3846 42.9449 72.5628 42.2068C72.7155 41.6215 72.9701 41.5706 73.3773 42.0541C73.9119 42.7158 75.0064 42.1559 77.119 40.1199C78.9007 38.3892 81.2425 35.4115 81.6752 34.2662C81.7515 34.0626 81.3443 33.5536 80.5807 32.9682C79.8934 32.4592 77.908 30.6013 76.1518 28.8452C74.3955 27.0891 72.8428 25.6639 72.7155 25.6639C72.5628 25.6639 71.9519 26.2238 71.341 26.8855Z" fill="white"/>
<path id="Vector_8" d="M104.507 27.4959C97.5076 34.0367 97.9658 33.5532 98.373 34.2912C99.0603 35.5129 99.4675 35.3093 103.133 31.7207L106.62 28.3358L106.696 30.2955C106.773 32.5097 106.442 33.4005 104.838 35.3347C103.693 36.709 103.107 37.8289 103.286 38.287C103.515 38.8469 103.769 38.7196 105.398 37.2435C106.238 36.48 107.002 35.9455 107.104 36.0219C107.18 36.0982 107.256 36.7599 107.256 37.4726C107.256 39.305 107.536 40.7048 107.867 40.603C108.02 40.5521 108.402 39.814 108.733 38.9487C109.063 38.0834 109.42 37.3708 109.522 37.3708C110.031 37.3708 110.667 38.5415 111.482 40.9593C112.703 44.4969 113.289 45.4132 115.681 47.5765L117.718 49.4089L117.056 47.9073C115.529 44.5224 115.732 44.5224 118.43 47.9328C119.449 49.2562 120.518 50.5287 120.772 50.7578C121.179 51.1396 121.256 51.1141 121.612 50.376C121.841 49.9688 122.019 49.4598 122.019 49.2562C122.019 49.0781 122.376 48.3909 122.808 47.7292L123.572 46.5584L123.037 45.515C122.63 44.7005 122.554 44.217 122.681 43.2753C122.834 42.1046 122.808 42.0282 121.867 41.1884C117.412 37.3453 113.798 33.5786 109.318 28.2085C107.791 26.3761 107.053 25.6635 106.696 25.6635C106.569 25.6635 105.576 26.4779 104.507 27.4959Z" fill="white"/>
<path id="Vector_9" d="M126.982 34.0117C126.753 34.8007 126.091 36.3532 125.556 37.4221C124.996 38.5165 124.564 39.4581 124.564 39.5345C124.564 39.789 125.378 39.6617 126.116 39.2545C126.549 39.0509 126.956 38.9237 127.033 39C127.211 39.1527 125.76 42.0032 124.767 43.4284C124.36 44.0393 124.08 44.5992 124.156 44.701C124.309 44.8537 125.709 44.5228 126.676 44.1156C127.465 43.7847 127.16 44.6246 125.582 47.017C124.742 48.315 124.029 49.5111 123.978 49.6638C123.902 50.0965 125.047 49.8929 126.04 49.2821C126.651 48.9003 126.855 48.8749 126.855 49.1294C126.855 49.6384 125.276 52.2089 124.182 53.4814L123.266 54.5504L124.156 54.6267C124.793 54.6776 125.327 54.5249 125.887 54.1432L126.676 53.5578L126.524 54.4486C126.422 54.9321 125.709 56.2556 124.946 57.3754C124.182 58.5207 123.546 59.5387 123.546 59.6405C123.546 59.7423 124.233 59.7423 125.073 59.6405L126.6 59.4624V62.1092C126.6 64.9088 126.778 65.4433 127.822 65.7487L128.382 65.9014V62.6946V59.4624L129.782 59.6405C130.545 59.7169 131.283 59.7423 131.436 59.6405C131.589 59.5387 131.258 58.8515 130.647 57.9608C129.578 56.3828 128.662 54.5249 128.636 53.965C128.636 53.736 129.018 53.8632 129.731 54.2959C130.774 54.9067 131.691 55.1357 131.691 54.7794C131.691 54.6776 131.08 53.6342 130.316 52.4125C129.553 51.2163 128.84 49.8929 128.738 49.4857L128.56 48.7731L129.756 49.4602C131.538 50.5037 131.716 50.0202 130.291 47.9078C129.171 46.228 128.407 44.3956 128.687 44.0902C128.789 44.0138 129.298 44.192 129.884 44.4719C131.563 45.3372 131.818 45.1591 130.749 43.7847C129.782 42.5122 128.255 39.4581 128.484 39.2036C128.56 39.1273 129.094 39.2545 129.654 39.4836C130.214 39.6872 130.673 39.7635 130.673 39.6363C130.673 39.509 130.113 38.2874 129.425 36.9131C128.738 35.5642 128.102 34.0626 128 33.6299C127.745 32.332 127.491 32.4338 126.982 34.0117Z" fill="white"/>
<path id="Vector_10" d="M51.9455 33.9863C51.5891 35.157 50.9783 36.4804 49.731 38.6438C49.0692 39.789 49.4256 40.1708 50.6219 39.5854C51.131 39.3564 51.64 39.1528 51.7673 39.1528C52.1491 39.1528 51.0546 41.6978 49.9601 43.2758C49.4256 44.0902 48.9674 44.8028 48.9674 44.8792C48.9674 45.1337 50.1383 44.981 50.7492 44.6247C52.3782 43.683 52.1746 44.7774 50.2146 47.4751C49.5274 48.4168 48.9674 49.2821 48.9674 49.4094C48.9674 49.8929 49.8838 49.8929 50.8001 49.4094C52.0473 48.6968 52.0473 49.0785 50.7492 51.0637C49.3492 53.2524 48.9165 54.1687 49.0692 54.5759C49.2474 55.0594 49.731 55.0085 50.4946 54.4232C50.851 54.1432 51.2837 53.9141 51.4619 53.9141C52.0218 53.9141 51.5891 54.8813 50.0874 57.1209C49.3238 58.2662 48.7129 59.2588 48.7129 59.3606C48.7129 59.4369 49.4001 59.5133 50.2401 59.5133H51.7673V62.4401V65.3669H52.6582H53.5491V62.4401C53.5491 59.1315 53.5236 59.1824 55.6617 59.7932C56.8071 60.0987 57.0616 59.9714 56.578 59.3097C54.2618 56.1538 52.9382 53.6596 53.6 53.6596C53.7272 53.6596 54.3381 54.0159 54.949 54.4486C55.5599 54.8813 56.2217 55.1867 56.4508 55.1358C56.7817 55.0849 56.5017 54.4995 55.2035 52.4126C54.2872 50.9364 53.5491 49.4857 53.5491 49.1294V48.5186L54.3127 49.1549C56.069 50.6565 57.0362 50.2493 55.7635 48.5441C54.6436 47.0679 53.6509 45.3118 53.4472 44.4211C53.2436 43.5812 53.2945 43.5812 54.4654 44.3701C55.3308 44.9555 56.3489 45.21 56.3489 44.8537C56.3489 44.7519 55.9671 44.1665 55.4835 43.5048C54.4654 42.105 53.5491 40.3489 53.5491 39.789C53.5491 39.4836 53.7527 39.4327 54.5672 39.56C55.1272 39.6618 55.5853 39.6363 55.5853 39.56C55.5853 39.4582 55.1272 38.5928 54.5927 37.6766C54.0581 36.735 53.3963 35.3352 53.1673 34.5716C52.5564 32.6374 52.3782 32.5356 51.9455 33.9863Z" fill="white"/>
<path id="Vector_11" d="M44.3352 74.7071C43.2152 74.8343 43.1643 75.0379 43.9025 76.2087L44.437 77.074H89.846H135.281L135.739 75.9796L136.197 74.9107L134.517 74.758C132.684 74.5798 45.8878 74.5289 44.3352 74.7071Z" fill="white"/>
<path id="Vector_12" d="M45.6582 79.0849C45.6582 79.1358 45.9127 79.6703 46.2182 80.2811L46.7782 81.4009H50.5962C52.7088 81.4009 72.028 81.4264 93.5108 81.4264C130.266 81.4518 132.582 81.4264 132.836 81.0192C132.964 80.7647 133.32 80.2048 133.626 79.7721L134.16 78.9577H89.9218C65.5628 78.9831 45.6582 79.034 45.6582 79.0849Z" fill="white"/>
<path id="Vector_13" d="M48.7129 83.6406C48.7129 83.7678 49.0692 84.3532 49.4765 84.9131L50.2401 85.982L88.8785 85.9566C110.107 85.9311 127.899 86.0075 128.382 86.1093C129.222 86.262 129.324 86.2111 130.164 85.0404C130.648 84.3786 131.106 83.7424 131.131 83.6151C131.182 83.5133 112.652 83.437 89.973 83.437C67.2685 83.437 48.7129 83.5388 48.7129 83.6406Z" fill="white"/>
<path id="Vector_14" d="M52.9886 87.9669C52.6068 88.1196 52.6577 88.2977 53.5231 89.2903L54.4903 90.4102L89.9471 90.3847L125.404 90.3593L126.371 89.2394L127.338 88.0941L124.869 87.9414C121.56 87.7124 53.5486 87.7633 52.9886 87.9669Z" fill="white"/>
<path id="Vector_15" d="M58.6653 92.5986L57.7744 92.7259L58.5635 93.3876C59.0216 93.7693 59.8616 94.3038 60.4725 94.5838C61.567 95.1182 61.8215 95.1182 89.9476 95.22L118.328 95.2964L119.474 94.711C120.772 94.0493 121.892 93.1585 121.688 92.9549C121.637 92.8786 120.848 92.7259 119.957 92.5986C118.201 92.3696 60.1161 92.3441 58.6653 92.5986Z" fill="white"/>
<path id="Vector_16" d="M70.1443 97.2052C67.4716 97.2815 65.1808 97.4088 65.1299 97.4851C64.9008 97.7142 68.7443 99.4448 70.9842 100.157C72.1042 100.514 74.1659 101.175 75.5658 101.634C80.8347 103.39 83.6346 103.797 90.1253 103.797C93.816 103.797 94.5287 103.721 98.9831 102.779C105.525 101.43 109.241 100.285 113.237 98.4268L115.019 97.6124L114.001 97.3833C112.779 97.1288 77.1185 96.9761 70.1443 97.2052ZM97.3286 99.7248C101.045 99.9793 102.903 100.361 102.47 100.794C102.114 101.15 75.4386 101.43 75.4386 101.074C75.4386 100.132 76.8131 99.9284 83.5837 99.7248C92.6197 99.4703 93.6124 99.4703 97.3286 99.7248Z" fill="white"/>
<path id="Vector_17" d="M9.87076 114.079C8.13993 114.614 5.62003 116.09 4.50008 117.209C3.17649 118.507 2.31107 120.213 1.64928 122.732C1.36929 123.801 0.962039 124.921 0.758411 125.226C0.402062 125.735 0.402062 125.837 0.834771 126.321C1.08931 126.601 1.59838 127.797 1.98018 128.993C2.99832 132.404 4.67825 134.745 7.09633 136.119C10.4562 138.028 14.147 138.13 19.2377 136.476C22.1648 135.534 22.2157 135.509 22.0375 134.872C21.8339 134.109 21.8594 128.535 22.0884 127.644C22.1648 127.313 22.6993 126.728 23.2848 126.346C24.9901 125.201 24.4556 125.074 18.2704 125.048C12.8997 125.048 12.7979 125.048 12.9761 125.557C13.0779 125.837 13.2052 126.677 13.2561 127.415C13.3579 128.51 13.4597 128.739 13.7906 128.637C14.0451 128.56 14.7833 128.433 15.4705 128.331C17.0232 128.128 17.1505 128.281 17.1505 130.851C17.1505 132.76 17.125 132.836 16.4632 133.091C16.056 133.243 15.0378 133.422 14.1979 133.498C11.0671 133.778 8.29265 132.124 7.19815 129.299C6.73998 128.153 6.61272 127.313 6.61272 125.303C6.58726 123.012 6.66362 122.63 7.27451 121.46C8.90353 118.38 12.0343 117.133 15.5469 118.177C17.1759 118.66 18.1177 119.398 18.2195 120.289C18.3468 121.358 18.7286 121.078 19.7467 119.169C21.1212 116.624 21.4267 115.581 20.8921 115.072C20.5103 114.69 20.4594 114.69 20.0013 115.224L19.5431 115.81L18.1432 115.123C15.4705 113.748 12.2125 113.341 9.87076 114.079Z" fill="white"/>
<path id="Vector_18" d="M25.4234 114.003C25.347 114.13 25.8052 114.715 26.4415 115.326L27.5869 116.446L27.5614 124.692C27.5614 134.414 27.4596 135.178 26.3142 136.119C24.7361 137.417 24.9652 137.443 33.823 137.494C38.3028 137.494 42.1718 137.621 42.4263 137.748C42.7826 137.926 42.859 137.824 42.859 137.112C42.859 136.628 43.0372 135.203 43.2663 133.956C44.0299 129.477 44.0299 129.757 43.3172 129.757C42.8336 129.757 42.579 129.986 42.2227 130.749C41.9936 131.309 41.4336 132.073 41.0264 132.48C40.2882 133.192 40.2627 133.192 36.2665 133.269L32.2703 133.371L32.2958 124.87C32.3213 119.169 32.4231 116.217 32.6012 115.886C32.754 115.581 33.1867 115.199 33.543 114.995C33.8994 114.817 34.2048 114.435 34.2048 114.206C34.2048 113.774 33.8994 113.748 29.8777 113.748C27.4851 113.774 25.4743 113.875 25.4234 114.003Z" fill="white"/>
<path id="Vector_19" d="M52.2758 114.028C52.2758 114.207 52.683 114.639 53.1667 114.97C53.6503 115.301 54.0575 115.657 54.0575 115.759C54.0575 115.861 53.5994 117.133 53.0139 118.559C52.0467 121.002 51.0286 123.776 48.1014 131.793C47.1087 134.542 46.8033 135.102 45.887 135.891C45.3015 136.425 44.8943 136.959 44.9961 137.112C45.1234 137.29 46.3706 137.392 48.6105 137.392C52.4794 137.392 52.9121 137.188 51.6649 135.891C50.8504 135.051 50.8504 134.542 51.5376 132.836L52.0976 131.538H55.992H59.8864L60.4209 133.345L60.9809 135.152L60.3191 136.069C59.9627 136.552 59.7337 137.061 59.81 137.188C59.8864 137.29 61.719 137.392 63.8826 137.392C68.3369 137.392 68.4897 137.316 66.8352 135.661C66.097 134.923 65.6389 134.033 64.7735 131.666C64.1626 129.986 62.8135 126.423 61.7954 123.725C60.7518 121.053 59.7337 118.075 59.5046 117.159L59.0719 115.454L59.7591 114.843C60.1155 114.486 60.4209 114.105 60.4209 113.977C60.4209 113.825 58.7919 113.723 56.3484 113.723C53.2685 113.723 52.2758 113.799 52.2758 114.028ZM57.8756 126.016C58.2065 126.805 58.4101 127.517 58.3592 127.594C58.2828 127.644 57.1883 127.619 55.9156 127.543L53.5739 127.39L54.363 125.328C54.7702 124.183 55.3048 122.707 55.5084 121.994L55.9156 120.747L56.6029 122.631C56.9847 123.674 57.5447 125.201 57.8756 126.016Z" fill="white"/>
<path id="Vector_20" d="M69.5849 114.079C69.4322 114.232 69.7122 114.639 70.3231 115.148L71.2903 115.988L71.494 121.969C71.5958 125.252 71.5958 129.553 71.494 131.538C71.3158 135.05 71.2649 135.178 70.5776 135.992C70.1704 136.45 69.8395 137.036 69.8395 137.265C69.8395 137.646 69.9922 137.697 70.8067 137.545C71.3158 137.468 72.9194 137.392 74.3702 137.392C77.3228 137.392 77.5773 137.163 76.2283 135.738L75.4902 134.974L75.3883 128.662C75.2611 121.358 75.032 121.536 77.8319 126.499C80.6318 131.513 81.879 133.574 82.0826 133.574C82.2099 133.574 82.6426 132.811 83.0753 131.844C84.0425 129.706 84.3989 129.019 86.3334 125.583C87.1988 124.03 87.9369 122.656 87.9878 122.529C88.2678 121.791 88.2933 123.012 88.166 128.917C88.0387 135.178 88.0387 135.33 87.4533 135.941C87.1224 136.298 86.8933 136.781 86.9442 137.01C87.0206 137.417 87.4279 137.443 90.8386 137.443C93.5621 137.443 94.6566 137.366 94.733 137.137C94.7839 136.985 94.4276 136.476 93.9185 135.992L93.0022 135.152V125.99C93.0022 120.544 93.104 116.548 93.2567 116.141C93.384 115.784 93.8421 115.275 94.2748 115.046C95.7257 114.206 95.2675 113.977 92.1368 113.977C90.5586 113.977 88.7005 113.901 88.0387 113.825C86.8933 113.646 86.8424 113.672 87.1479 114.155C87.4279 114.588 87.1479 115.25 84.8825 119.576C83.4826 122.274 82.3117 124.616 82.3117 124.768C82.3117 124.921 81.8535 124.132 81.319 123.012C80.7845 121.892 79.6391 119.729 78.7737 118.202C77.9337 116.675 77.221 115.275 77.221 115.097C77.221 114.944 77.3992 114.664 77.6028 114.486C77.8319 114.308 77.9337 114.105 77.8828 114.028C77.6537 113.799 69.814 113.85 69.5849 114.079Z" fill="white"/>
<path id="Vector_21" d="M102.751 113.926C100.053 113.952 97.8382 114.079 97.8382 114.181C97.8382 114.308 98.2455 114.791 98.7545 115.275L99.6709 116.14L99.5181 125.659L99.3654 135.203L98.6018 135.992C97.1764 137.468 97.38 137.57 101.682 137.493C103.947 137.442 105.652 137.315 105.805 137.163C106.009 136.959 105.805 136.628 105.143 136.017L104.202 135.152V132.123V129.12L106.136 129.196C109.852 129.4 113.085 128.306 114.892 126.27C118.201 122.478 116.572 116.318 111.761 114.511C110.056 113.875 109.19 113.824 102.751 113.926ZM109.369 117.896C109.827 118.075 110.463 118.558 110.819 118.94C111.685 119.882 111.736 122.299 110.87 123.674C110.03 125.048 108.961 125.353 105.551 125.226L104.202 125.175V121.51V117.82L105.551 117.718C108.274 117.54 108.554 117.54 109.369 117.896Z" fill="white"/>
<path id="Vector_22" d="M119.931 113.901C119.015 114.054 119.015 114.639 119.957 115.098C120.364 115.327 120.746 115.657 120.822 115.887C120.924 116.09 120.975 120.544 120.975 125.787V135.331L120.211 135.967C119.753 136.349 119.473 136.807 119.524 137.061C119.6 137.469 119.957 137.52 123.546 137.418C126.04 137.367 127.567 137.24 127.669 137.061C127.771 136.909 127.414 136.374 126.88 135.865C125.633 134.72 125.582 134.313 125.607 125.431C125.633 117.134 125.76 116.166 126.982 115.123C128.509 113.825 128.28 113.723 124.258 113.749C122.247 113.774 120.313 113.85 119.931 113.901Z" fill="white"/>
<path id="Vector_23" d="M131.258 113.927C130.444 114.054 130.52 114.334 131.691 115.25L132.735 116.064L132.684 125.252C132.684 130.317 132.556 134.72 132.429 135.025C132.302 135.356 131.92 135.738 131.589 135.891C130.902 136.221 130.622 136.705 130.826 137.214C130.902 137.468 131.716 137.519 134.16 137.468C135.916 137.418 137.52 137.392 137.723 137.392C138.487 137.392 138.385 136.603 137.52 135.865L136.654 135.152L136.578 128.892C136.527 125.456 136.603 122.453 136.705 122.249C136.883 121.969 137.393 122.631 138.691 124.845C140.803 128.459 144.112 133.447 145.232 134.745C145.843 135.432 146.072 135.941 146.072 136.603V137.494H149.356C152.283 137.494 152.69 137.443 152.919 137.036C153.123 136.679 153.123 136.527 152.868 136.45C152.69 136.374 152.232 136.043 151.85 135.738L151.163 135.152L151.214 127.797C151.239 123.776 151.265 119.551 151.265 118.457L151.29 116.446L152.436 115.326C153.072 114.741 153.581 114.105 153.581 113.952C153.581 113.647 145.792 113.799 145.461 114.105C145.385 114.207 145.614 114.537 145.996 114.817C146.378 115.123 146.785 115.657 146.912 116.014C147.014 116.37 147.065 119.195 146.988 122.325L146.836 128.001L145.741 126.397C145.13 125.507 143.73 123.471 142.61 121.867C141.491 120.264 140.04 118.1 139.403 117.082C138.283 115.301 138.258 115.225 138.665 114.614C138.894 114.283 139.072 113.952 139.072 113.901C139.072 113.799 132.022 113.825 131.258 113.927Z" fill="white"/>
<path id="Vector_24" d="M163.992 114.309C159.766 115.836 157.043 118.763 156.127 122.784C155.974 123.471 155.643 124.464 155.439 124.973C155.109 125.736 155.109 126.016 155.338 126.296C155.516 126.5 155.872 127.543 156.127 128.587C157.323 133.371 160.046 136.247 164.297 137.265C167.352 137.978 170.152 137.698 174.479 136.222L176.668 135.484L176.54 132.124C176.413 128.358 176.591 127.543 177.788 126.678C178.678 126.067 178.729 125.482 177.966 125.329C176.769 125.049 167.072 125.049 167.199 125.304C167.25 125.431 167.504 126.22 167.733 127.009L168.166 128.485H169.948C171.653 128.485 171.704 128.51 171.551 129.045C171.475 129.376 171.399 130.394 171.399 131.31C171.399 133.27 171.399 133.27 168.828 133.499C166.181 133.728 164.679 133.244 163.126 131.692C161.599 130.165 160.963 128.358 160.963 125.609C160.963 122.326 162.312 119.832 164.73 118.635C167.555 117.236 171.424 117.999 172.493 120.163C173.053 121.282 173.359 121.333 173.74 120.392C173.893 120.01 174.402 118.865 174.86 117.821C175.344 116.803 175.726 115.81 175.726 115.632C175.726 115.098 174.988 114.971 174.351 115.378C173.817 115.734 173.613 115.709 171.781 114.818C169.108 113.571 166.537 113.393 163.992 114.309Z" fill="white"/>
<path id="Vector_25" d="M113.365 142.686C112.703 142.762 112.703 142.788 112.703 144.9C112.703 147.292 112.449 147.827 111.303 147.827C110.336 147.827 110.056 147.114 110.056 144.62C110.056 142.788 110.03 142.737 109.42 142.737C108.783 142.737 108.783 142.737 108.783 145.256C108.783 147.725 108.809 147.801 109.547 148.539C110.489 149.481 111.379 149.736 112.296 149.252C113.67 148.539 114.001 147.929 114.078 145.816C114.205 142.966 114.128 142.584 113.365 142.686Z" fill="white"/>
<path id="Vector_26" d="M42.4765 143.118C42.0692 143.322 41.3311 143.933 40.8729 144.467C40.1348 145.282 40.033 145.536 40.1348 146.376C40.3893 148.285 42.4001 149.914 44.0037 149.506C45.3527 149.176 46.9309 147.267 46.9309 145.994C46.9309 144.671 45.0473 142.736 43.7492 142.736C43.4692 142.736 42.9092 142.915 42.4765 143.118ZM44.7928 144.849C45.3782 145.358 45.4546 145.562 45.3018 146.376C44.9964 148.03 43.3165 148.616 42.3747 147.419C41.6874 146.554 41.6874 145.434 42.3492 144.773C43.0365 144.085 43.9528 144.136 44.7928 144.849Z" fill="white"/>
<path id="Vector_27" d="M59.2254 143.093C59.3272 143.348 59.4036 144.875 59.4036 146.503V149.481H61.4398H63.4761V148.794C63.4761 148.158 63.3743 148.081 62.2034 147.929C61.2108 147.801 60.9308 147.649 60.9308 147.318C60.9308 146.987 61.2108 146.834 62.0762 146.707C62.9925 146.554 63.2216 146.427 63.2216 146.02C63.2216 145.613 63.0434 145.536 61.9489 145.536C60.778 145.536 60.6762 145.485 60.6762 144.9C60.6762 144.34 60.778 144.289 62.1525 144.213C63.4252 144.137 63.6034 144.06 63.6797 143.551C63.7561 143.017 63.6797 142.991 61.8725 142.991C60.8035 142.991 59.7599 142.915 59.5054 142.813C59.149 142.686 59.0981 142.737 59.2254 143.093Z" fill="white"/>
<path id="Vector_28" d="M75.4385 146.172V149.608H76.0748C76.6857 149.608 76.7112 149.557 76.7112 147.75L76.7366 145.918L78.5438 147.827L80.3765 149.735L80.5546 148.997C80.6564 148.59 80.7837 147.063 80.8092 145.561L80.8601 142.864L80.1728 142.787C79.5619 142.711 79.511 142.787 79.4856 143.678C79.4601 144.213 79.3838 144.976 79.282 145.409L79.1292 146.147L77.9838 144.798C77.3475 144.06 76.533 143.296 76.1512 143.093L75.4385 142.711V146.172Z" fill="white"/>
<path id="Vector_29" d="M100.205 146.224V149.609H100.943C101.63 149.609 101.656 149.558 101.656 148.463C101.656 147.827 101.758 147.318 101.885 147.318C102.012 147.318 102.572 147.853 103.132 148.489C103.972 149.481 104.227 149.634 104.939 149.558L105.779 149.481L104.838 148.285L103.896 147.064L104.685 146.173C105.627 145.078 105.652 144.773 104.863 143.831C104.303 143.195 104.049 143.119 102.216 142.991L100.205 142.864V146.224ZM103.616 144.671C103.87 145.333 103.336 145.918 102.521 145.918C101.885 145.918 101.783 145.816 101.707 145.078C101.63 144.289 101.656 144.264 102.547 144.264C103.158 144.264 103.514 144.391 103.616 144.671Z" fill="white"/>
<path id="Vector_30" d="M118.227 143.399C117.692 143.857 117.438 144.289 117.438 144.773C117.438 145.409 117.667 145.638 118.914 146.376C119.703 146.834 120.365 147.394 120.365 147.598C120.365 148.107 119.296 148.183 118.583 147.725C118.252 147.496 117.845 147.318 117.692 147.318C117.132 147.318 117.463 148.31 118.252 148.972C119.143 149.736 120.034 149.71 121.129 148.921C122.554 147.903 122.045 146.376 119.958 145.358C118.329 144.569 118.481 144.111 120.314 144.213C121.612 144.289 121.765 144.238 121.765 143.806C121.765 143.475 121.485 143.195 120.976 143.017C119.729 142.584 119.067 142.686 118.227 143.399Z" fill="white"/>
<path id="Vector_31" d="M125.074 143.093C125.074 143.297 125.023 143.627 124.921 143.831C124.819 144.086 125.074 144.238 125.812 144.366L126.855 144.518L126.804 147.012C126.754 149.379 126.779 149.481 127.314 149.557C127.848 149.634 127.873 149.583 127.873 146.962V144.264H128.739C129.452 144.264 129.604 144.162 129.706 143.627C129.782 143.297 129.782 142.94 129.706 142.864C129.63 142.788 128.561 142.737 127.314 142.737C125.557 142.737 125.074 142.813 125.074 143.093Z" fill="white"/>
<path id="Vector_32" d="M132.913 146.173C132.862 148.947 132.913 149.583 133.168 149.481C133.371 149.405 133.728 149.354 134.008 149.354C134.466 149.354 134.491 149.125 134.491 146.046V142.737H133.753H132.99L132.913 146.173Z" fill="white"/>
<path id="Vector_33" d="M140.218 143.042C139.251 143.551 138.309 144.594 138.055 145.434C137.826 146.121 137.851 146.478 138.258 147.419C138.844 148.692 139.607 149.303 140.931 149.532C141.644 149.634 141.949 149.532 142.662 148.896L143.502 148.157L142.916 147.852C142.458 147.598 142.178 147.598 141.618 147.827C140.447 148.31 139.327 147.419 139.327 145.969C139.327 144.773 140.6 144.162 142.204 144.594C143.247 144.874 143.451 144.111 142.535 143.322C141.796 142.686 141.033 142.584 140.218 143.042Z" fill="white"/>
<path id="Vector_34" d="M30.3857 146.173C30.3857 148.82 30.4621 149.405 30.7675 149.532C30.9966 149.609 31.2257 149.634 31.2766 149.583C31.3275 149.532 31.4039 148.641 31.4548 147.623C31.5057 146.631 31.5821 145.791 31.6584 145.791C31.7348 145.816 32.0911 146.275 32.4729 146.809C32.8547 147.369 33.2874 147.827 33.4147 147.827C33.5165 147.827 33.9492 147.343 34.3565 146.733L35.0946 145.664L35.171 147.623C35.2474 149.609 35.3237 149.761 36.0873 149.456C36.4182 149.329 36.4946 148.845 36.4946 146.936C36.4946 145.638 36.4182 144.213 36.3419 143.78C36.0873 142.584 35.2728 142.711 34.331 144.137C33.9238 144.748 33.4911 145.282 33.3893 145.282C33.2874 145.282 32.8547 144.773 32.422 144.137C31.862 143.297 31.4548 142.991 31.0221 142.991H30.3857V146.173Z" fill="white"/>
<path id="Vector_35" d="M50.4433 145.002C50.4942 146.096 50.4179 147.572 50.2906 148.285L50.0615 149.557L51.4869 149.43C53.5487 149.252 54.465 148.921 55.2031 148.056C56.0176 147.063 56.0431 145.663 55.254 144.493C54.4904 143.347 53.7268 142.991 51.8942 142.991H50.367L50.4433 145.002ZM53.2941 144.645C55.254 145.663 54.7704 147.623 52.5305 147.878C51.9196 147.954 51.8942 147.903 51.8178 146.096C51.7415 144.06 51.8942 143.907 53.2941 144.645Z" fill="white"/>
<path id="Vector_36" d="M66.9885 146.096C67.0394 147.827 67.0903 149.252 67.1157 149.252C67.1412 149.278 67.4212 149.38 67.7266 149.456C68.2102 149.609 68.2866 149.532 68.363 148.667C68.4648 147.293 69.2284 147.242 70.1447 148.591C70.5774 149.201 71.061 149.609 71.3665 149.609C72.0028 149.609 72.0028 149.38 71.3156 147.98L70.781 146.86L71.3156 146.173C72.0792 145.206 72.0283 144.442 71.0865 143.653C70.4247 143.093 70.0683 142.991 68.6175 142.991H66.9121L66.9885 146.096ZM69.9411 144.417C70.9083 144.798 70.1192 146.147 69.0247 145.995C68.5666 145.944 68.4139 145.74 68.363 145.078C68.2866 144.366 68.363 144.264 68.9229 144.264C69.2538 144.264 69.712 144.34 69.9411 144.417Z" fill="white"/>
<path id="Vector_37" d="M90.0747 143.73C89.871 144.748 89.3111 145.282 88.522 145.282C87.8093 145.282 87.7329 145.587 88.3184 146.071C88.6238 146.326 88.7002 146.784 88.6238 148.005C88.5729 148.896 88.5984 149.609 88.6747 149.609C88.7511 149.609 89.1583 149.176 89.5911 148.667L90.3801 147.725L91.3473 148.54C91.8564 148.998 92.34 149.329 92.3909 149.278C92.4673 149.227 92.3909 148.616 92.2382 147.929C91.9837 146.86 92.0091 146.656 92.3909 146.376C92.6455 146.198 93.0018 146.046 93.2054 146.046C93.9691 146.046 93.2818 145.435 92.2382 145.18C91.3219 144.951 91.0928 144.748 90.8637 144.086C90.4565 142.941 90.2783 142.839 90.0747 143.73Z" fill="white"/>
<path id="Vector_38" d="M151.265 145.944L150.604 146.605L151.214 147.725C151.571 148.336 151.902 148.845 152.003 148.845C152.08 148.845 152.36 148.641 152.614 148.412C153.2 147.878 157.603 147.522 162.363 147.623C164.196 147.674 167.25 147.674 169.185 147.623C172.061 147.572 172.723 147.496 172.85 147.191C172.926 146.962 172.952 146.733 172.875 146.682C172.824 146.605 168.446 146.504 163.178 146.453C154.014 146.325 153.531 146.3 152.843 145.791C152.436 145.511 152.054 145.282 152.003 145.282C151.953 145.282 151.622 145.587 151.265 145.944Z" fill="white"/>
<path id="Vector_39" d="M11.6272 146.478C5.54385 146.555 5.1875 146.58 5.1875 147.038C5.1875 147.318 5.41658 147.573 5.77293 147.674C6.07837 147.751 10.2273 147.827 15.0126 147.827C23.4631 147.827 23.6922 147.802 24.1758 147.293C24.914 146.478 24.2776 146.3 20.9687 146.351C19.3651 146.402 15.1398 146.453 11.6272 146.478Z" fill="white"/>
<path id="Vector_40" d="M82.4644 148.641C82.2608 148.972 82.0063 149.532 81.9299 149.939C81.7772 150.55 81.8027 150.601 82.2099 150.448C82.9226 150.194 83.5844 149.303 83.508 148.743C83.4317 148.005 82.8972 147.954 82.4644 148.641Z" fill="white"/>
<path id="Vector_41" d="M61.5927 156.098C60.9564 157.701 60.4219 159.076 60.4219 159.152C60.4219 159.228 60.7019 159.279 61.0328 159.279C61.4909 159.279 61.6691 159.127 61.7455 158.694C61.7964 158.236 62 158.109 62.8909 158.058C63.8581 157.981 64.0108 158.058 64.2908 158.618C64.4944 159.101 64.7744 159.279 65.2835 159.279H65.9707L65.2326 157.472C64.3417 155.309 63.2218 153.171 62.9418 153.171C62.84 153.171 62.2291 154.495 61.5927 156.098ZM63.4763 156.531C63.4763 156.632 63.2472 156.734 62.9418 156.734C62.56 156.734 62.4582 156.632 62.56 156.327C62.6363 156.098 62.7127 155.793 62.7127 155.64C62.7381 155.309 63.4763 156.2 63.4763 156.531Z" fill="white"/>
<path id="Vector_42" d="M49.8835 153.961C49.4508 154.317 49.2217 154.724 49.2217 155.208C49.2217 155.819 49.4253 156.073 50.3671 156.633C51.7416 157.422 51.7161 157.88 50.3416 157.906C49.1708 157.906 49.0435 158.364 50.0107 159.076C50.9271 159.764 51.9452 159.458 52.4797 158.338C52.8615 157.549 52.8615 157.397 52.5052 156.786C52.3016 156.404 51.7161 155.87 51.1816 155.59C50.6725 155.31 50.2398 155.004 50.2398 154.877C50.2398 154.775 50.8507 154.699 51.6143 154.699C53.1924 154.699 53.5742 154.419 52.7343 153.834C51.9452 153.274 50.698 153.325 49.8835 153.961Z" fill="white"/>
<path id="Vector_43" d="M55.4582 153.681C55.3818 153.808 55.4327 154.19 55.6109 154.495C55.8145 154.877 55.8654 155.767 55.7382 157.295L55.5855 159.534L56.2982 159.381C56.68 159.28 57.0109 159.203 57.0109 159.178C57.0363 159.152 57.1127 157.854 57.1636 156.276L57.3163 153.426H56.4509C55.9927 153.426 55.5346 153.528 55.4582 153.681Z" fill="white"/>
<path id="Vector_44" d="M69.0504 153.858C67.0905 155.055 67.0651 157.625 68.9995 158.796C70.5777 159.788 72.6394 158.974 72.6394 157.371C72.6394 156.403 72.2321 155.971 71.3158 155.971C70.5013 155.971 70.3486 156.531 70.9849 157.167C71.4685 157.625 71.2649 158.007 70.5013 158.007C69.6868 158.007 69.0759 157.243 69.0759 156.2C69.0759 154.978 69.4577 154.698 71.0358 154.698C72.4867 154.698 72.7157 154.444 71.8249 153.833C71.0867 153.324 69.8904 153.324 69.0504 153.858Z" fill="white"/>
<path id="Vector_45" d="M75.1588 153.553C75.0825 153.604 75.1334 154.571 75.2352 155.64C75.3625 156.735 75.3879 158.007 75.3116 158.491L75.1588 159.356L76.1261 159.203C76.6606 159.102 77.3987 159.025 77.806 159.025C78.3151 159.025 78.4932 158.898 78.4932 158.516C78.4932 157.982 77.526 157.575 76.8133 157.855C76.457 157.982 76.4315 157.753 76.457 156.048C76.4824 154.953 76.5079 153.91 76.4824 153.732C76.457 153.452 75.4134 153.299 75.1588 153.553Z" fill="white"/>
<path id="Vector_46" d="M80.9113 154.241C80.8349 154.699 80.784 155.997 80.8349 157.117C80.9113 158.949 80.9622 159.153 81.4204 159.153C81.904 159.153 81.9294 158.975 81.9294 156.353C81.9294 153.935 81.8785 153.554 81.4967 153.477C81.1913 153.426 81.0131 153.63 80.9113 154.241Z" fill="white"/>
<path id="Vector_47" d="M93.5877 153.604L92.4932 153.706V156.378V159.025L93.7658 159.076C94.4785 159.101 95.2421 159.127 95.4967 159.127C95.8021 159.152 95.9294 158.948 95.9294 158.516C95.9294 157.956 95.8021 157.879 94.9876 157.803C94.2495 157.752 94.0204 157.6 94.0204 157.243C94.0204 156.887 94.224 156.734 94.8349 156.683C96.0058 156.581 95.9803 156.072 94.784 155.869C93.9949 155.742 93.7658 155.589 93.7658 155.207C93.7658 154.8 93.944 154.698 94.6313 154.698C95.5221 154.698 96.2348 154.164 95.9294 153.68C95.853 153.553 95.5221 153.451 95.2167 153.476C94.9112 153.502 94.1731 153.553 93.5877 153.604Z" fill="white"/>
<path id="Vector_48" d="M84.9073 156.404C84.9836 158.72 85.06 159.153 85.3909 159.229C85.7218 159.28 85.8745 159.025 86.0018 158.007L86.1799 156.709L87.3508 157.676C88.0126 158.211 88.6998 158.796 88.9035 158.974C89.6162 159.662 89.7943 159.153 89.718 156.582C89.6925 155.208 89.5907 153.986 89.5398 153.884C89.4634 153.757 89.1835 153.681 88.9035 153.681C88.4962 153.681 88.4198 153.859 88.4198 154.979V156.302L87.0454 154.979C84.9582 153.044 84.8309 153.121 84.9073 156.404Z" fill="white"/>
<path id="Vector_49" d="M102.827 154.622C102.75 155.156 102.674 156.429 102.674 157.421C102.674 159.228 102.699 159.279 103.285 159.279C103.845 159.279 103.921 159.152 103.997 158.185C104.074 157.116 104.074 157.116 105.168 157.04L106.237 156.963V158.109C106.237 159.076 106.314 159.279 106.721 159.279C107.128 159.279 107.205 158.999 107.332 157.167C107.612 153.757 107.612 153.68 106.874 153.68C106.314 153.68 106.237 153.782 106.237 154.698V155.716H105.092H103.947V154.698C103.947 153.884 103.845 153.68 103.463 153.68C103.107 153.68 102.954 153.935 102.827 154.622Z" fill="white"/>
<path id="Vector_50" d="M110.361 156.353L110.437 159.025H111.328C111.811 159.025 112.651 159.102 113.186 159.178C114.026 159.331 114.128 159.28 114.128 158.822C114.128 158.211 113.44 157.753 112.499 157.753C112.015 157.753 111.837 157.625 111.837 157.244C111.837 156.811 112.015 156.735 112.855 156.735C113.695 156.735 113.873 156.658 113.873 156.226C113.873 155.793 113.695 155.717 112.728 155.717C111.761 155.717 111.582 155.64 111.582 155.208C111.582 154.75 111.761 154.699 112.982 154.699C114.204 154.699 114.382 154.648 114.382 154.19C114.382 153.732 114.204 153.681 112.321 153.681H110.259L110.361 156.353Z" fill="white"/>
<path id="Vector_51" d="M116.902 153.859C116.775 155.437 117.029 159.178 117.259 159.331C117.793 159.662 118.073 159.382 118.149 158.44C118.2 157.931 118.302 157.498 118.404 157.498C118.48 157.498 119.066 157.982 119.651 158.567C120.415 159.331 120.822 159.56 121 159.382C121.204 159.178 121.127 158.822 120.746 158.185L120.186 157.244L120.72 156.582C121.407 155.691 121.382 155.08 120.618 154.317C120.109 153.782 119.753 153.681 118.455 153.681C117.615 153.681 116.928 153.757 116.902 153.859ZM119.855 155.462C119.855 155.997 119.728 156.124 119.04 156.175C118.251 156.251 118.2 156.2 118.2 155.462C118.2 154.724 118.251 154.673 119.04 154.75C119.728 154.8 119.855 154.928 119.855 155.462Z" fill="white"/>
<path id="Vector_52" d="M123.801 156.404V159.153L125.735 159.203C127.593 159.229 127.67 159.203 127.517 158.694C127.441 158.389 127.364 158.058 127.364 157.956C127.364 157.88 126.906 157.855 126.346 157.931C125.379 158.058 125.328 158.033 125.328 157.396C125.328 156.811 125.43 156.735 126.219 156.735C126.804 156.735 127.11 156.607 127.11 156.378C127.11 155.997 126.575 155.717 125.812 155.717C125.506 155.717 125.328 155.539 125.328 155.233C125.328 154.8 125.532 154.724 126.55 154.648C127.415 154.597 127.746 154.47 127.746 154.19C127.746 153.884 127.313 153.782 125.786 153.732L123.801 153.655V156.404Z" fill="white"/>
</g>
</svg>
