<svg width="119" height="107" viewBox="0 0 119 107" fill="none" xmlns="http://www.w3.org/2000/svg">
<path d="M59.6122 0.024025C59.5782 0.0580597 58.7103 0.126129 57.6723 0.143143C55.7835 0.194191 55.324 0.245247 52.6524 0.738731C47.2921 1.70868 40.8088 4.51643 36.6227 7.66451C33.1343 10.2681 30.7349 12.8376 28.2845 16.5302C24.66 22.0606 22.8902 27.6591 22.4478 35.0954C22.1415 39.9792 23.4348 46.1222 25.7831 50.9209C27.4337 54.3412 30.1223 58.221 32.4366 60.5523C38.5966 66.7634 46.3392 70.7453 54.9496 72.1407C56.7194 72.4129 62.1817 72.4129 64.1386 72.1236C66.504 71.7833 69.8732 70.9835 72.2386 70.2348C77.8541 68.431 83.946 64.4832 87.2132 60.5353C89.2552 58.0679 90.7357 56.162 91.025 55.6005C91.1951 55.2771 91.5525 54.7326 91.8077 54.4093C93.3562 52.4694 95.9768 46.0711 96.6234 42.7359C96.9808 40.813 97.2871 36.3716 97.151 34.8401C96.6405 28.6801 95.8407 25.4299 93.7817 21.0396C91.5184 16.1558 86.5666 10.217 82.1763 7.06892C79.9982 5.52041 76.4587 3.56349 74.3146 2.7467C70.7921 1.4194 66.4189 0.398392 63.3559 0.211212C62.471 0.160164 61.2969 0.0750809 60.7183 0.0410461C60.1567 -0.0100021 59.6632 -0.0100021 59.6122 0.024025ZM64.7342 2.44039C68.7501 2.9509 73.8211 4.5845 77.2415 6.43931C80.9171 8.43026 85.4945 12.3441 88.0811 15.7134C90.8208 19.2699 93.1861 24.1196 94.105 28.0164C95.7896 35.1124 95.5003 41.4596 93.2201 47.1942C91.3653 51.9078 89.7998 54.5454 86.7708 58.0679C84.3714 60.8586 81.4956 63.343 78.7219 65.0277C74.5018 67.5802 71.0134 68.8905 65.9594 69.8434C63.7132 70.2688 63.1006 70.3199 59.8845 70.3029C56.0727 70.2858 54.2179 70.0816 51.257 69.3159C45.165 67.7163 38.6306 64.0407 34.4786 59.8546C27.6549 52.9629 24.0304 43.9611 24.4728 34.9252C24.6259 32.0154 24.7961 30.7731 25.4598 28.0335C27.0933 21.2608 30.871 15.1689 36.2994 10.5403C38.5115 8.65148 38.6647 8.54938 41.047 7.11998C43.5144 5.67356 44.9438 5.00991 47.8537 4.03996C53.5372 2.15111 58.6252 1.65763 64.7342 2.44039Z" fill="black"/>
<path d="M59.1867 7.25592C58.6082 7.61327 58.0977 8.53217 58.0977 9.22985C58.0977 9.91052 59.2548 11.0166 59.9525 11.0166C61.7052 11.0166 62.6411 9.05968 61.518 7.81747C61.0415 7.30697 60.3779 6.9326 59.9184 6.9326C59.7993 6.9326 59.476 7.08575 59.1867 7.25592Z" fill="black"/>
<path d="M68.4602 9.63814C67.5073 10.5911 67.9667 12.2247 69.26 12.4799C69.7024 12.565 69.9066 12.4799 70.3661 12.0715C70.8596 11.6291 70.9447 11.4419 70.9447 10.7612C70.9447 10.0976 70.8596 9.89339 70.4682 9.55305C69.8045 8.9915 69.0898 9.02554 68.4602 9.63814Z" fill="black"/>
<path d="M79.5218 15.3556C79.3686 15.9852 79.2495 16.1384 78.8751 16.2234C77.8371 16.4276 77.4457 17.0743 78.2966 17.1764C78.739 17.2274 78.773 17.2955 78.8241 18.0272C78.8751 18.9121 78.9602 18.9801 79.4707 18.5888C79.8961 18.2654 80.2024 18.2654 80.6108 18.6228C80.9342 18.9291 80.9512 18.9121 80.8321 18.1633C80.73 17.3976 80.73 17.3806 81.3255 17.0913C82.1594 16.6999 82.1083 16.3255 81.2064 16.2575C80.4747 16.2064 80.4747 16.2064 80.3216 15.3896C80.1344 14.3516 79.777 14.3346 79.5218 15.3556Z" fill="black"/>
<path d="M39.7534 15.0321C39.5492 15.1683 39.379 15.4746 39.379 15.6958C39.379 16.0191 39.2259 16.1382 38.6643 16.3254C37.8135 16.6147 37.7114 17.0231 38.4431 17.1422C38.9026 17.2273 38.9536 17.2954 39.0047 17.976L39.0557 18.7418L39.4641 18.2313L39.8555 17.7378L40.4171 18.2483L40.9616 18.7588L40.8595 18.0441C40.7744 17.3464 40.7914 17.2954 41.4381 16.938C42.1698 16.5296 42.1528 16.2914 41.404 16.2914C40.9616 16.2914 40.8595 16.1893 40.5702 15.5256C40.383 15.1002 40.2129 14.7599 40.1958 14.7599C40.1618 14.7599 39.9576 14.879 39.7534 15.0321Z" fill="black"/>
<path d="M59.0502 16.8354C58.5568 18.1968 56.3616 22.2127 54.9152 24.4589C53.8602 26.0925 51.631 29.1385 50.3717 30.67C48.602 32.8481 42.6292 38.6848 40.6552 40.1823C40.1958 40.5396 39.3109 41.3394 38.6983 41.969C37.4561 43.2453 35.8906 44.3684 34.5292 44.964C34.0358 45.1852 33.5763 45.4404 33.5253 45.5425C33.4572 45.6446 33.6614 45.8488 33.9507 46.002C34.4782 46.2572 34.5122 46.2572 35.5843 45.6957C36.1799 45.3894 37.371 44.6236 38.2389 43.977C39.0897 43.3474 39.8895 42.8369 40.0086 42.8369C40.5191 42.8369 40.7573 43.6197 40.7063 45.1512L40.6552 46.6656L38.1878 46.7677C36.8265 46.8188 35.4311 46.9209 35.0738 47.006C34.5292 47.1081 31.7555 46.9209 29.9007 46.6486L29.3392 46.5635V44.5556C29.3392 43.4495 29.3902 42.3094 29.4413 42.0201C29.5434 41.5096 29.5604 41.4926 30.3772 41.5947C30.8366 41.6457 31.211 41.6287 31.211 41.5606C31.211 41.4926 30.8196 40.5907 30.3261 39.5867C29.8497 38.5657 29.5093 37.6808 29.5604 37.6298C29.6284 37.5617 29.8667 37.6468 30.1049 37.8C30.3602 37.9701 30.6665 38.0722 30.8026 38.0382C31.0068 38.0042 30.9557 37.868 30.6154 37.3916C30.1219 36.7279 29.6114 35.809 29.4413 35.2304C29.3221 34.8731 29.3562 34.8561 29.8326 35.0262C30.1219 35.1283 30.4793 35.1794 30.6324 35.1454C30.8877 35.0943 30.8707 35.0262 30.4963 34.5838C30.0368 34.0393 29.6284 33.2905 29.4242 32.6439C29.3051 32.2695 29.3392 32.2355 29.8326 32.3376C30.4282 32.4567 30.5133 32.2525 30.1049 31.708C29.8667 31.4017 29.6114 30.67 29.169 29.0704C29.0669 28.662 28.9137 28.3897 28.8287 28.4748C28.7606 28.5599 28.5394 29.1385 28.3352 29.7511C28.131 30.3637 27.7396 31.2315 27.4503 31.674L26.9568 32.4737L27.7226 32.3716C28.199 32.2866 28.4883 32.3206 28.4883 32.4227C28.4883 32.5078 28.0799 33.1544 27.5694 33.8351C26.7526 34.9412 26.6846 35.0943 26.9738 35.1454C27.161 35.1794 27.5524 35.1283 27.8417 35.0262C28.131 34.9241 28.4032 34.8731 28.4373 34.9071C28.5564 35.0262 28.148 35.6899 27.3312 36.7619C26.9228 37.3065 26.6335 37.8 26.6846 37.851C26.7356 37.9021 27.144 37.834 27.5864 37.6979C28.0459 37.5447 28.4373 37.4596 28.4713 37.4937C28.5053 37.5107 28.2671 38.0212 27.9268 38.6168C27.3312 39.6888 26.6505 41.7478 26.8377 41.918C26.8888 41.969 27.0759 41.935 27.2631 41.8329C27.4673 41.7308 27.7736 41.6457 27.9608 41.6457C28.3011 41.6457 28.3182 41.7478 28.3182 43.4665C28.3182 44.4875 28.3692 45.5936 28.4203 45.9509C28.5224 46.5465 28.5053 46.5976 27.9948 46.7677C27.7056 46.8698 27.4673 46.9719 27.4673 46.989C27.4673 47.1932 27.8587 48.1121 27.9438 48.1121C28.0119 48.1121 28.8287 48.1631 29.7646 48.2142C30.7005 48.2822 34.8696 48.2992 39.0387 48.2652C49.0445 48.1971 73.1741 48.1971 83.2139 48.2652C87.6212 48.2992 91.3649 48.2822 91.5691 48.2142C91.9094 48.1121 92.3008 47.4654 92.3008 46.989C92.3008 46.8528 92.0796 46.6997 91.7903 46.6316L91.2798 46.5295V43.994V41.4585L92.2327 41.5777L93.1857 41.6968L92.6412 40.7268C92.3178 40.1653 92.1307 39.6207 92.1817 39.4336C92.2327 39.2464 92.1136 38.821 91.9435 38.4636C91.5181 37.6298 91.5181 37.3235 91.9435 37.5617C92.1307 37.6468 92.488 37.7319 92.7432 37.7319H93.2197L92.7773 37.2554C92.1817 36.6258 91.8073 35.9962 91.6201 35.3666C91.5351 35.0773 91.501 34.8391 91.5181 34.8391C91.5521 34.8391 91.8584 34.9582 92.2157 35.1113C92.5561 35.2475 92.8794 35.3325 92.9134 35.2985C92.9645 35.2645 92.7262 34.8391 92.4029 34.3626C91.8073 33.4607 91.3479 32.3376 91.5181 32.1674C91.5691 32.1164 91.8073 32.2015 92.0626 32.3546C92.6922 32.78 92.7262 32.6099 92.1477 31.759C91.8754 31.3506 91.5181 30.5509 91.3649 29.9893C91.1947 29.4278 91.0246 28.9002 90.9735 28.8152C90.9395 28.7301 90.6502 29.2916 90.3439 30.0574C90.0376 30.8231 89.6632 31.5889 89.5101 31.759C89.0676 32.2525 89.1698 32.4397 89.8504 32.3376L90.463 32.2355L90.1737 32.8141C90.0036 33.1374 89.6462 33.716 89.374 34.1073C88.8805 34.788 88.8464 35.2304 89.2889 35.0943C90.0546 34.8731 90.429 34.8561 90.429 35.0433C90.429 35.1624 90.0716 35.775 89.6292 36.4216C89.0506 37.2554 88.8805 37.6128 89.0166 37.7489C89.1527 37.885 89.3569 37.868 89.7653 37.6638C90.463 37.3065 90.446 37.3065 90.2588 37.851C90.0716 38.3615 90.0716 38.3445 89.2719 40.2674C88.9655 40.948 88.7784 41.5947 88.8294 41.6798C88.8805 41.7648 89.2208 41.7989 89.5781 41.7308L90.2248 41.6287L90.2929 43.8919C90.3439 45.1341 90.429 46.2743 90.4971 46.4274C90.5991 46.6827 90.395 46.7337 88.6933 46.8188C86.2259 46.9719 84.8645 46.9719 81.4101 46.8869L78.6024 46.8018L78.5513 45.1682C78.5003 43.5346 78.6705 42.8369 79.0789 42.8369C79.198 42.8369 80.236 43.4835 81.3931 44.2833C84.337 46.3253 84.7114 46.4955 85.5112 46.0701C86.0557 45.7638 85.8855 45.4234 84.9496 44.947C83.7244 44.3344 81.8866 42.99 80.5593 41.7478C79.9467 41.1693 78.8066 40.1653 78.0068 39.4846C75.7606 37.5958 71.1151 32.9162 69.4134 30.8401C66.4355 27.1816 61.0922 18.8604 60.4796 16.8865C60.2754 16.2228 59.8671 15.6102 59.6288 15.6102C59.5607 15.6102 59.3055 16.1548 59.0502 16.8354ZM59.5607 21.0045C59.3225 24.0675 59.1523 24.6971 57.3656 29.2065C55.8511 33.0693 53.0263 37.1874 50.1505 39.6888C48.0915 41.4926 47.3258 41.8329 45.2157 41.8669C44.2968 41.884 43.0886 41.8329 42.5271 41.7478C41.6422 41.6287 41.5571 41.5947 41.8804 41.4245C42.0846 41.3054 42.493 40.897 42.8164 40.5056C43.1227 40.1312 44.1777 39.0592 45.1476 38.1233C46.9344 36.4556 51.4608 31.5548 51.4608 31.3166C51.4608 31.2315 51.7161 30.9082 52.0224 30.5679C52.3116 30.2275 52.9072 29.4618 53.3326 28.8662C53.7581 28.2876 54.3366 27.4708 54.6429 27.0795C54.9492 26.6711 55.3406 26.0585 55.5278 25.6841C55.715 25.3267 56.1234 24.7141 56.4297 24.3228C56.736 23.9484 57.5528 22.7062 58.2505 21.5831C58.9482 20.443 59.5437 19.5241 59.5948 19.5241C59.6288 19.5241 59.6118 20.1877 59.5607 21.0045ZM60.3946 27.3177C61.2284 30.5849 63.4065 34.9582 65.6017 37.7489C68.1201 40.914 68.5285 41.4756 68.4435 41.5606C68.4094 41.6117 68.1371 41.5777 67.8479 41.4926L67.3374 41.3394L68.1542 42.8199C69.022 44.3684 69.3283 45.2192 69.022 45.2192C68.8178 45.2192 67.6267 44.5386 67.6267 44.4194C67.6267 44.3854 67.7117 44.4024 67.8308 44.4705C68.2563 44.7428 67.4905 43.8749 66.6057 43.0921C64.7508 41.4585 63.9681 40.3014 62.3175 36.796C61.2114 34.4477 60.7179 32.7971 60.1393 29.5128C60.0202 28.8832 59.8671 28.3727 59.799 28.3727C59.7309 28.3727 59.5948 29.0364 59.4757 29.8532C58.9482 33.4607 58.3355 35.5367 56.8721 38.4806C55.4597 41.3394 54.6089 42.5816 52.1415 45.3554L51.2056 46.4104H49.4358H47.6831L47.7852 45.8488C47.8363 45.5596 47.9213 44.7938 47.9894 44.1642L48.1085 43.0241L48.9764 42.5816C49.8953 42.1222 52.4137 39.9781 53.0434 39.1273C53.2476 38.838 53.741 38.1403 54.1324 37.5787C54.5408 37.0172 54.9492 36.5067 55.0343 36.4556C55.1364 36.3876 55.4427 35.8771 55.749 35.2985C56.0383 34.7199 56.4467 34.0052 56.6509 33.733C57.0933 33.1204 58.829 29.4618 59.1694 28.3727C59.3055 27.9473 59.5097 27.1645 59.6288 26.62C59.7479 26.0925 59.8841 25.6841 59.9351 25.7351C59.9862 25.7862 60.1904 26.4839 60.3946 27.3177ZM62.6748 39.876C63.6788 41.9861 64.8359 43.6367 66.3504 45.1001L67.7117 46.4444L66.3844 46.3423C64.8699 46.2232 64.4786 46.019 63.5937 44.7598C62.0792 42.6327 60.82 38.9401 60.5817 35.8601L60.4626 34.5838L61.2454 36.5407C61.6708 37.6128 62.3004 39.1273 62.6748 39.876ZM70.8258 40.2844C71.2342 40.5907 72.051 41.1012 72.6125 41.4075C73.3953 41.8329 73.5825 41.9861 73.3783 42.0711C72.9529 42.2413 71.4384 41.4926 70.3153 40.5737C69.4985 39.893 68.6817 38.9911 66.3674 36.2004C66.1802 35.9622 66.929 36.6598 68.0521 37.7489C69.1752 38.838 70.4344 39.9781 70.8258 40.2844ZM58.9311 37.0002C58.6589 38.9571 58.2164 40.4205 57.1103 43.0411C56.4977 44.5045 55.8681 45.8659 55.715 46.0701C55.3576 46.5465 54.0644 46.7507 53.9112 46.3423C53.8091 46.0701 53.9793 45.7467 55.5448 43.2623C57.0253 40.897 58.3015 38.2084 58.8801 36.2344C59.0332 35.7239 59.0502 36.1153 58.9311 37.0002ZM77.0709 40.914C77.4963 41.2373 77.5303 41.2884 77.2411 41.2884C77.0369 41.2884 76.4923 40.8459 75.8797 40.1483L74.8758 39.0081L75.7096 39.7739C76.186 40.1993 76.7986 40.7098 77.0709 40.914ZM46.1856 43.6367C46.1856 43.8068 46.1176 44.2152 46.0325 44.5386C45.9474 44.8619 45.8283 45.4234 45.7602 45.7638L45.6581 46.4104H43.9735H42.2718V44.964V43.5346L43.7693 43.4665C44.5861 43.4495 45.4539 43.3984 45.7262 43.3814C46.0665 43.3644 46.1856 43.4325 46.1856 43.6367ZM67.2012 44.0281C67.3714 44.2152 67.4735 44.3684 67.4225 44.3684C67.3714 44.3684 67.2012 44.2152 67.0311 44.0281C66.8609 43.8409 66.7588 43.6877 66.8098 43.6877C66.8609 43.6877 67.0311 43.8409 67.2012 44.0281Z" fill="black"/>
<path d="M47.3604 17.6192C46.952 18.0617 46.0501 19.0997 45.3694 19.9165C44.6887 20.7333 43.5827 21.8394 42.885 22.3669C42.2043 22.9114 41.3194 23.7963 40.911 24.3238C40.5197 24.8513 39.7879 25.7022 39.2774 26.1956C38.0352 27.3868 37.9331 27.591 38.3075 28.1185C38.4777 28.3397 38.7329 28.5439 38.8861 28.5439C39.0562 28.5439 40.0092 27.574 41.0302 26.3658C42.0682 25.1746 43.4125 23.7452 44.0421 23.2007C44.6717 22.6562 45.8118 21.499 46.5776 20.6482C47.3263 19.7974 48.024 19.0657 48.1091 19.0316C48.4154 18.9125 48.1431 23.456 47.8198 24.0856C47.4114 24.8854 47.1221 27.1486 47.3604 27.7271C47.5646 28.2887 48.058 28.3568 48.1772 27.8633C48.2793 27.4719 48.4494 27.4379 48.7217 27.7612C49.079 28.2036 49.8108 27.8292 51.2231 26.4679C52.4143 25.3108 53.9798 23.3198 54.2691 22.5541C54.3202 22.4179 54.0479 22.0776 53.5374 21.6862C53.078 21.3459 51.7507 20.1037 50.5765 18.9295C49.4024 17.7554 48.3643 16.8024 48.2793 16.8024C48.1772 16.8024 47.7688 17.1768 47.3604 17.6192Z" fill="black"/>
<path d="M69.5324 18.0273C64.8528 22.4006 65.1591 22.0773 65.4313 22.5708C65.8908 23.3876 66.1631 23.2515 68.6135 20.8521L70.9447 18.5889L70.9958 19.8992C71.0468 21.3796 70.8256 21.9752 69.7536 23.2685C68.9878 24.1874 68.5964 24.9361 68.7156 25.2424C68.8687 25.6168 69.0389 25.5317 70.1279 24.5447C70.6895 24.0342 71.2 23.6769 71.2681 23.7279C71.3191 23.779 71.3702 24.2214 71.3702 24.6979C71.3702 25.9231 71.5573 26.859 71.7786 26.7909C71.8807 26.7569 72.1359 26.2634 72.3571 25.6848C72.5783 25.1063 72.8166 24.6298 72.8846 24.6298C73.225 24.6298 73.6504 25.4126 74.1949 27.0292C75.0117 29.3945 75.4031 30.0071 77.0027 31.4535L78.364 32.6787L77.9216 31.6747C76.9006 29.4115 77.0367 29.4115 78.8405 31.6917C79.5211 32.5766 80.2358 33.4274 80.406 33.5806C80.6783 33.8358 80.7293 33.8188 80.9676 33.3253C81.1207 33.0531 81.2398 32.7127 81.2398 32.5766C81.2398 32.4575 81.4781 31.998 81.7673 31.5556L82.2778 30.7728L81.9205 30.0751C81.6482 29.5306 81.5972 29.2073 81.6823 28.5777C81.7844 27.7949 81.7673 27.7439 81.1377 27.1823C78.1598 24.6128 75.7434 22.0943 72.7485 18.5038C71.7275 17.2786 71.234 16.8021 70.9958 16.8021C70.9107 16.8021 70.2471 17.3467 69.5324 18.0273Z" fill="black"/>
<path d="M84.5587 22.3832C84.4055 22.9107 83.9631 23.9487 83.6057 24.6634C83.2314 25.3951 82.9421 26.0248 82.9421 26.0758C82.9421 26.246 83.4866 26.1609 83.9801 25.8886C84.2694 25.7525 84.5416 25.6674 84.5927 25.7185C84.7118 25.8206 83.7419 27.7264 83.0782 28.6794C82.8059 29.0878 82.6188 29.4621 82.6698 29.5302C82.7719 29.6323 83.7078 29.4111 84.3545 29.1388C84.882 28.9176 84.6778 29.4791 83.6227 31.0787C83.0612 31.9466 82.5847 32.7463 82.5507 32.8484C82.4996 33.1377 83.2654 33.0016 83.929 32.5932C84.3374 32.3379 84.4736 32.3209 84.4736 32.4911C84.4736 32.8314 83.4185 34.5501 82.6868 35.4009L82.0742 36.1156L82.6698 36.1667C83.0952 36.2007 83.4526 36.0986 83.8269 35.8434L84.3545 35.452L84.2524 36.0476C84.1843 36.3709 83.7078 37.2558 83.1973 38.0045C82.6868 38.7702 82.2614 39.4509 82.2614 39.519C82.2614 39.587 82.7209 39.587 83.2824 39.519L84.3034 39.3999V41.1696C84.3034 43.0414 84.4225 43.3988 85.1202 43.603L85.4946 43.7051V41.561V39.3999L86.4305 39.519C86.941 39.57 87.4345 39.587 87.5366 39.519C87.6387 39.4509 87.4175 38.9915 87.0091 38.3959C86.2944 37.3408 85.6818 36.0986 85.6647 35.7243C85.6647 35.5711 85.92 35.6562 86.3965 35.9455C87.0941 36.3539 87.7067 36.507 87.7067 36.2688C87.7067 36.2007 87.2983 35.503 86.7878 34.6862C86.2773 33.8865 85.8009 33.0016 85.7328 32.7293L85.6137 32.2529L86.4135 32.7123C87.6046 33.41 87.7238 33.0867 86.7708 31.6743C86.0221 30.5512 85.5116 29.326 85.6988 29.1218C85.7668 29.0707 86.1072 29.1899 86.4986 29.377C87.6217 29.9556 87.7918 29.8365 87.0771 28.9176C86.4305 28.0668 85.4095 26.0248 85.5626 25.8546C85.6137 25.8035 85.971 25.8886 86.3454 26.0418C86.7198 26.1779 87.0261 26.229 87.0261 26.1439C87.0261 26.0588 86.6517 25.242 86.1923 24.3231C85.7328 23.4212 85.3074 22.4172 85.2393 22.1279C85.0692 21.2601 84.899 21.3282 84.5587 22.3832Z" fill="black"/>
<path d="M34.3935 22.3661C34.1553 23.1489 33.7469 24.0337 32.9131 25.4802C32.4707 26.2459 32.7089 26.5012 33.5087 26.1098C33.849 25.9566 34.1893 25.8205 34.2744 25.8205C34.5297 25.8205 33.798 27.5222 33.0662 28.5772C32.7089 29.1217 32.4026 29.5982 32.4026 29.6492C32.4026 29.8194 33.1854 29.7173 33.5938 29.4791C34.6828 28.8495 34.5467 29.5812 33.2364 31.3849C32.777 32.0146 32.4026 32.5931 32.4026 32.6782C32.4026 33.0015 33.0152 33.0015 33.6278 32.6782C34.4616 32.2017 34.4616 32.457 33.5938 33.7843C32.6578 35.2477 32.3686 35.8603 32.4707 36.1326C32.5898 36.4559 32.9131 36.4219 33.4236 36.0305C33.6618 35.8433 33.9511 35.6902 34.0702 35.6902C34.4446 35.6902 34.1553 36.3368 33.1513 37.8343C32.6408 38.6 32.2324 39.2637 32.2324 39.3317C32.2324 39.3828 32.6919 39.4338 33.2534 39.4338H34.2744V41.3907V43.3477H34.87H35.4656V41.3907C35.4656 39.1786 35.4486 39.2126 36.878 39.621C37.6437 39.8252 37.8139 39.7401 37.4906 39.2977C35.9421 37.1876 35.0572 35.52 35.4996 35.52C35.5847 35.52 35.9931 35.7582 36.4015 36.0475C36.8099 36.3368 37.2523 36.541 37.4055 36.507C37.6267 36.4729 37.4395 36.0815 36.5717 34.6862C35.9591 33.6992 35.4656 32.7293 35.4656 32.491V32.0826L35.9761 32.508C37.1502 33.512 37.7969 33.2398 36.946 32.0996C36.1973 31.1127 35.5337 29.9385 35.3975 29.3429C35.2614 28.7814 35.2954 28.7814 36.0782 29.3089C36.6568 29.7003 37.3374 29.8705 37.3374 29.6322C37.3374 29.5642 37.0822 29.1728 36.7589 28.7303C36.0782 27.7944 35.4656 26.6203 35.4656 26.2459C35.4656 26.0417 35.6017 26.0077 36.1463 26.0928C36.5206 26.1608 36.8269 26.1438 36.8269 26.0928C36.8269 26.0247 36.5206 25.4461 36.1633 24.8335C35.8059 24.2039 35.3635 23.268 35.2103 22.7575C34.8019 21.4642 34.6828 21.3962 34.3935 22.3661Z" fill="black"/>
<path d="M29.3049 49.5932C28.5562 49.6783 28.5222 49.8144 29.0157 50.5972L29.373 51.1758H59.7307H90.1055L90.4118 50.4441L90.7181 49.7294L89.595 49.6273C88.3698 49.5081 30.343 49.4741 29.3049 49.5932Z" fill="black"/>
<path d="M30.1904 52.5197C30.1904 52.5537 30.3606 52.911 30.5648 53.3194L30.9392 54.0682H33.4917C34.904 54.0682 47.8197 54.0852 62.1818 54.0852C86.7538 54.1022 88.3023 54.0852 88.4725 53.8129C88.5576 53.6428 88.7958 53.2684 89 52.9791L89.3574 52.4346H59.7824C43.4975 52.4516 30.1904 52.4856 30.1904 52.5197Z" fill="black"/>
<path d="M32.2324 55.5657C32.2324 55.6508 32.4707 56.0421 32.7429 56.4165L33.2534 57.1312L59.0847 57.1142C73.2766 57.0972 85.1713 57.1482 85.4946 57.2163C86.0561 57.3184 86.1242 57.2844 86.6858 56.5016C87.0091 56.0592 87.3154 55.6337 87.3324 55.5487C87.3664 55.4806 74.9783 55.4295 59.8164 55.4295C44.6376 55.4295 32.2324 55.4976 32.2324 55.5657Z" fill="black"/>
<path d="M35.0911 58.4592C34.8359 58.5613 34.8699 58.6804 35.4485 59.344L36.0951 60.0928L59.7993 60.0758L83.5035 60.0587L84.1502 59.31L84.7968 58.5443L83.1462 58.4422C80.934 58.289 35.4655 58.323 35.0911 58.4592Z" fill="black"/>
<path d="M38.8856 61.5556L38.29 61.6407L38.8176 62.0831C39.1239 62.3384 39.6854 62.6957 40.0938 62.8829C40.8255 63.2403 40.9957 63.2403 59.7991 63.3083L78.7727 63.3594L79.5384 62.968C80.4063 62.5256 81.155 61.93 81.0189 61.7938C80.9849 61.7428 80.4573 61.6407 79.8618 61.5556C78.6876 61.4025 39.8556 61.3854 38.8856 61.5556Z" fill="black"/>
<path d="M46.56 64.6357C44.7733 64.6867 43.2418 64.7718 43.2077 64.8228C43.0546 64.976 45.6241 66.1331 47.1216 66.6096C47.8703 66.8478 49.2486 67.2903 50.1846 67.5966C53.707 68.7707 55.5788 69.043 59.9181 69.043C62.3855 69.043 62.862 68.9919 65.8399 68.3623C70.2132 67.4604 72.6976 66.6947 75.3692 65.4525L76.5604 64.9079L75.8797 64.7548C75.0629 64.5846 51.2226 64.4825 46.56 64.6357ZM64.7338 66.3203C67.2182 66.4905 68.4604 66.7457 68.1712 67.035C67.9329 67.2732 50.0995 67.4604 50.0995 67.2222C50.0995 66.5926 51.0184 66.4564 55.5448 66.3203C61.5857 66.1501 62.2494 66.1501 64.7338 66.3203Z" fill="black"/>
<path d="M6.26472 75.9173C5.10759 76.2747 3.42294 77.2616 2.67421 78.0104C1.78934 78.8782 1.21077 80.0183 0.768341 81.703C0.581158 82.4177 0.308891 83.1664 0.172758 83.3706C-0.0654757 83.7109 -0.0654757 83.779 0.223808 84.1023C0.393974 84.2895 0.734308 85.0893 0.989558 85.8891C1.67022 88.1693 2.79332 89.7348 4.40991 90.6537C6.65611 91.93 9.12352 91.9981 12.5269 90.892C14.4838 90.2624 14.5178 90.2453 14.3987 89.8199C14.2626 89.3094 14.2796 85.5828 14.4327 84.9872C14.4838 84.766 14.8411 84.3746 15.2325 84.1193C16.3726 83.3536 16.0153 83.2685 11.8802 83.2515C8.28971 83.2515 8.22164 83.2515 8.34076 83.5918C8.40882 83.779 8.49391 84.3406 8.52794 84.834C8.59601 85.5658 8.66407 85.7189 8.88529 85.6508C9.05546 85.5998 9.54894 85.5147 10.0084 85.4466C11.0464 85.3105 11.1315 85.4126 11.1315 87.1313C11.1315 88.4075 11.1145 88.4586 10.672 88.6288C10.3998 88.7309 9.71911 88.85 9.15756 88.901C7.06451 89.0882 5.20969 87.9821 4.47797 86.0933C4.17167 85.3275 4.08659 84.766 4.08659 83.4217C4.06957 81.8902 4.12062 81.6349 4.52902 80.8521C5.61809 78.7931 7.71114 77.9593 10.0594 78.657C11.1485 78.9803 11.7781 79.4738 11.8462 80.0694C11.9313 80.7841 12.1865 80.5969 12.8672 79.3206C13.7861 77.619 13.9903 76.9213 13.6329 76.581C13.3777 76.3257 13.3437 76.3257 13.0374 76.6831L12.7311 77.0744L11.7951 76.615C10.0084 75.6961 7.83026 75.4238 6.26472 75.9173Z" fill="black"/>
<path d="M16.6618 75.8662C16.6108 75.9513 16.9171 76.3427 17.3425 76.7511L18.1082 77.4998L18.0912 83.0132C18.0912 89.5136 18.0231 90.0241 17.2574 90.6537C16.2024 91.5215 16.3555 91.5385 22.2773 91.5726C25.2722 91.5726 27.8588 91.6577 28.0289 91.7427C28.2672 91.8619 28.3182 91.7938 28.3182 91.3173C28.3182 90.994 28.4373 90.0411 28.5905 89.2073C29.101 86.2123 29.101 86.3995 28.6245 86.3995C28.3012 86.3995 28.131 86.5527 27.8928 87.0632C27.7397 87.4375 27.3653 87.948 27.093 88.2203C26.5995 88.6968 26.5825 88.6968 23.9109 88.7478L21.2393 88.8159L21.2563 83.1323C21.2733 79.3206 21.3414 77.3466 21.4605 77.1254C21.5626 76.9212 21.8519 76.666 22.0901 76.5298C22.3284 76.4107 22.5326 76.1555 22.5326 76.0023C22.5326 75.713 22.3284 75.696 19.6397 75.696C18.0402 75.713 16.6958 75.7811 16.6618 75.8662Z" fill="black"/>
<path d="M34.6145 75.8836C34.6145 76.0027 34.8868 76.292 35.2101 76.5132C35.5334 76.7344 35.8057 76.9726 35.8057 77.0407C35.8057 77.1088 35.4994 77.9596 35.108 78.9125C34.4614 80.5462 33.7807 82.401 31.8238 87.7612C31.1601 89.599 30.9559 89.9734 30.3433 90.5009C29.9519 90.8582 29.6797 91.2156 29.7477 91.3177C29.8328 91.4368 30.6666 91.5049 32.1641 91.5049C34.7506 91.5049 35.0399 91.3687 34.2061 90.5009C33.6616 89.9393 33.6616 89.599 34.121 88.4589L34.4954 87.591H37.0989H39.7025L40.0598 88.7992L40.4342 90.0074L39.9918 90.62C39.7535 90.9433 39.6004 91.2837 39.6514 91.3687C39.7025 91.4368 40.9277 91.5049 42.3741 91.5049C45.352 91.5049 45.4541 91.4538 44.348 90.3477C43.8546 89.8543 43.5483 89.2587 42.9697 87.6761C42.5613 86.553 41.6594 84.1707 40.9787 82.3669C40.2811 80.5802 39.6004 78.5892 39.4472 77.9766L39.158 76.8365L39.6174 76.4281C39.8556 76.1899 40.0598 75.9346 40.0598 75.8496C40.0598 75.7474 38.9708 75.6794 37.3372 75.6794C35.2782 75.6794 34.6145 75.7304 34.6145 75.8836ZM38.3582 83.8984C38.5794 84.4259 38.7155 84.9024 38.6815 84.9535C38.6304 84.9875 37.8987 84.9705 37.0479 84.9194L35.4824 84.8173L36.0099 83.439C36.2821 82.6732 36.6395 81.6863 36.7756 81.2098L37.0479 80.376L37.5073 81.6352C37.7626 82.3329 38.137 83.3539 38.3582 83.8984Z" fill="black"/>
<path d="M46.1856 75.9172C46.0835 76.0193 46.2707 76.2916 46.6791 76.6319L47.3257 77.1935L47.4619 81.1924C47.5299 83.3875 47.5299 86.2633 47.4619 87.5906C47.3427 89.9389 47.3087 90.024 46.8493 90.5686C46.577 90.8749 46.3558 91.2662 46.3558 91.4194C46.3558 91.6746 46.4579 91.7087 47.0024 91.6066C47.3427 91.5555 48.4148 91.5045 49.3847 91.5045C51.3587 91.5045 51.5288 91.3513 50.627 90.3984L50.1335 89.8879L50.0654 85.6678C49.9803 80.784 49.8272 80.9031 51.699 84.2213C53.5708 87.5736 54.4047 88.952 54.5408 88.952C54.6259 88.952 54.9152 88.4415 55.2044 87.7948C55.8511 86.3654 56.0893 85.906 57.3826 83.6087C57.9611 82.5707 58.4546 81.6518 58.4887 81.5667C58.6758 81.0733 58.6929 81.8901 58.6078 85.8379C58.5227 90.024 58.5227 90.1261 58.1313 90.5345C57.9101 90.7728 57.7569 91.0961 57.791 91.2492C57.842 91.5215 58.1143 91.5385 60.3945 91.5385C62.2153 91.5385 62.947 91.4875 62.9981 91.3343C63.0321 91.2322 62.7939 90.8919 62.4535 90.5686L61.8409 90.007V83.881C61.8409 80.2394 61.909 77.5678 62.0111 77.2956C62.0962 77.0573 62.4025 76.717 62.6918 76.5638C63.6617 76.0023 63.3554 75.8491 61.2624 75.8491C60.2073 75.8491 58.9651 75.7981 58.5227 75.747C57.7569 75.6279 57.7229 75.6449 57.9271 75.9683C58.1143 76.2575 57.9271 76.7 56.4126 79.5928C55.4767 81.3966 54.6939 82.9621 54.6939 83.0642C54.6939 83.1663 54.3876 82.6388 54.0303 81.8901C53.6729 81.1413 52.9072 79.6949 52.3286 78.6739C51.7671 77.6529 51.2906 76.717 51.2906 76.5979C51.2906 76.4958 51.4097 76.3086 51.5459 76.1895C51.699 76.0704 51.7671 75.9342 51.733 75.8832C51.5799 75.73 46.3388 75.7641 46.1856 75.9172Z" fill="black"/>
<path d="M68.358 75.8153C66.5543 75.8323 65.0738 75.9174 65.0738 75.9854C65.0738 76.0705 65.3461 76.3938 65.6864 76.7172L66.299 77.2957L66.1969 83.66L66.0948 90.0412L65.5843 90.5687C64.6314 91.5557 64.7675 91.6238 67.6433 91.5727C69.1578 91.5387 70.2979 91.4536 70.4 91.3515C70.5362 91.2154 70.4 90.9941 69.9576 90.5857L69.328 90.0072V87.9822V85.9742L70.6213 86.0253C73.1057 86.1614 75.2668 85.4297 76.475 84.0684C78.6872 81.5329 77.5981 77.4148 74.3819 76.2067C73.2418 75.7812 72.6633 75.7472 68.358 75.8153ZM72.7824 78.4699C73.0887 78.589 73.5141 78.9123 73.7523 79.1676C74.3309 79.7972 74.3649 81.4138 73.7864 82.3327C73.2248 83.2516 72.5101 83.4558 70.2299 83.3707L69.328 83.3366V80.8862V78.4188L70.2299 78.3508C72.0507 78.2316 72.2378 78.2316 72.7824 78.4699Z" fill="black"/>
<path d="M79.845 75.7992C79.2324 75.9013 79.2324 76.2926 79.8621 76.5989C80.1343 76.7521 80.3896 76.9733 80.4406 77.1265C80.5087 77.2626 80.5427 80.2405 80.5427 83.7459V90.1272L80.0322 90.5526C79.7259 90.8079 79.5387 91.1142 79.5728 91.2843C79.6238 91.5566 79.8621 91.5906 82.2614 91.5226C83.929 91.4885 84.95 91.4034 85.0181 91.2843C85.0862 91.1822 84.8479 90.8249 84.4906 90.4845C83.6568 89.7188 83.6227 89.4465 83.6398 83.5077C83.6568 77.9603 83.7419 77.3136 84.5587 76.616C85.5797 75.7481 85.4265 75.68 82.7379 75.6971C81.3936 75.7141 80.1003 75.7651 79.845 75.7992Z" fill="black"/>
<path d="M87.417 75.8158C86.8724 75.9009 86.9235 76.0881 87.7063 76.7007L88.4039 77.2452L88.3699 83.3882C88.3699 86.7745 88.2848 89.7184 88.1997 89.9226C88.1147 90.1438 87.8594 90.3991 87.6382 90.5012C87.1787 90.7224 86.9916 91.0457 87.1277 91.3861C87.1787 91.5562 87.7233 91.5903 89.3569 91.5562C90.531 91.5222 91.6031 91.5052 91.7392 91.5052C92.2497 91.5052 92.1816 90.9777 91.6031 90.4842L91.0245 90.0077L90.9735 85.8216C90.9394 83.5244 90.9905 81.5164 91.0585 81.3803C91.1777 81.1931 91.518 81.6355 92.3858 83.116C93.7982 85.5323 96.0104 88.8676 96.7591 89.7354C97.1675 90.1949 97.3207 90.5352 97.3207 90.9777V91.5732H99.5158C101.473 91.5732 101.745 91.5392 101.898 91.2669C102.034 91.0287 102.034 90.9266 101.864 90.8756C101.745 90.8245 101.439 90.6033 101.183 90.3991L100.724 90.0077L100.758 85.0899C100.775 82.4013 100.792 79.5765 100.792 78.8448L100.809 77.5005L101.575 76.7517C102 76.3603 102.341 75.9349 102.341 75.8328C102.341 75.6286 97.1335 75.7307 96.9123 75.9349C96.8612 76.003 97.0144 76.2242 97.2696 76.4114C97.5249 76.6156 97.7971 76.9729 97.8822 77.2112C97.9503 77.4494 97.9843 79.3383 97.9333 81.4313L97.8312 85.226L97.0995 84.154C96.6911 83.5584 95.7551 82.1971 95.0064 81.125C94.2577 80.053 93.2877 78.6065 92.8623 77.9259C92.1136 76.7347 92.0966 76.6837 92.3688 76.2753C92.522 76.054 92.6411 75.8328 92.6411 75.7988C92.6411 75.7307 87.9275 75.7477 87.417 75.8158Z" fill="black"/>
<path d="M109.3 76.0713C106.476 77.0923 104.655 79.0492 104.042 81.7378C103.94 82.1973 103.719 82.8609 103.583 83.2013C103.362 83.7118 103.362 83.8989 103.515 84.0861C103.634 84.2223 103.872 84.9199 104.042 85.6176C104.842 88.8168 106.663 90.7396 109.505 91.4203C111.547 91.8968 113.418 91.7096 116.311 90.7226L117.775 90.2291L117.69 87.9829C117.605 85.4645 117.724 84.9199 118.523 84.3414C119.119 83.933 119.153 83.5416 118.643 83.4395C117.843 83.2523 111.359 83.2523 111.445 83.4225C111.479 83.5076 111.649 84.0351 111.802 84.5626L112.091 85.5496H113.282C114.422 85.5496 114.456 85.5666 114.354 85.9239C114.303 86.1451 114.252 86.8258 114.252 87.4384C114.252 88.7487 114.252 88.7487 112.534 88.9018C110.764 89.055 109.76 88.7317 108.722 87.6937C107.701 86.6727 107.275 85.4645 107.275 83.6267C107.275 81.4315 108.177 79.7639 109.794 78.9641C111.683 78.0282 114.269 78.5387 114.984 79.9851C115.358 80.7338 115.563 80.7679 115.818 80.1383C115.92 79.883 116.26 79.1173 116.567 78.4196C116.89 77.7389 117.145 77.0753 117.145 76.9561C117.145 76.5988 116.652 76.5137 116.226 76.786C115.869 77.0242 115.733 77.0072 114.508 76.4116C112.721 75.5778 111.002 75.4587 109.3 76.0713Z" fill="black"/>
<path d="M75.4546 95.0443C75.0122 95.0954 75.0122 95.1124 75.0122 96.5248C75.0122 98.1244 74.842 98.4817 74.0763 98.4817C73.4296 98.4817 73.2424 98.0052 73.2424 96.3376C73.2424 95.1124 73.2254 95.0784 72.817 95.0784C72.3916 95.0784 72.3916 95.0784 72.3916 96.763C72.3916 98.4136 72.4086 98.4647 72.9021 98.9582C73.5317 99.5878 74.1273 99.758 74.7399 99.4346C75.6588 98.9582 75.88 98.5498 75.9311 97.1374C76.0162 95.2315 75.9651 94.9763 75.4546 95.0443Z" fill="black"/>
<path d="M28.0633 95.3342C27.7911 95.4703 27.2976 95.8787 26.9913 96.2361C26.4978 96.7806 26.4297 96.9508 26.4978 97.5123C26.668 98.7886 28.0123 99.8776 29.0843 99.6054C29.9862 99.3841 31.0412 98.1079 31.0412 97.2571C31.0412 96.3722 29.782 95.0789 28.9142 95.0789C28.727 95.0789 28.3526 95.198 28.0633 95.3342ZM29.6118 96.4913C30.0032 96.8316 30.0543 96.9678 29.9522 97.5123C29.748 98.6184 28.6249 99.0098 27.9953 98.21C27.5358 97.6314 27.5358 96.8827 27.9782 96.4403C28.4377 95.9808 29.0503 96.0148 29.6118 96.4913Z" fill="black"/>
<path d="M39.2601 95.3167C39.3281 95.4869 39.3792 96.5079 39.3792 97.5969V99.5879H40.7405H42.1019V99.1284C42.1019 98.703 42.0338 98.652 41.251 98.5499C40.5874 98.4648 40.4002 98.3627 40.4002 98.1415C40.4002 97.9203 40.5874 97.8182 41.1659 97.7331C41.7785 97.631 41.9317 97.5459 41.9317 97.2736C41.9317 97.0014 41.8126 96.9503 41.0809 96.9503C40.2981 96.9503 40.23 96.9163 40.23 96.5249C40.23 96.1505 40.2981 96.1165 41.217 96.0654C42.0678 96.0144 42.1869 95.9633 42.238 95.623C42.289 95.2657 42.238 95.2486 41.0298 95.2486C40.3151 95.2486 39.6174 95.1976 39.4473 95.1295C39.209 95.0444 39.175 95.0785 39.2601 95.3167Z" fill="black"/>
<path d="M50.0996 97.3755V99.6727H50.525C50.9334 99.6727 50.9504 99.6387 50.9504 98.4305L50.9675 97.2053L52.1756 98.4816L53.4008 99.7578L53.52 99.2643C53.588 98.9921 53.6731 97.9711 53.6901 96.9671L53.7242 95.1633L53.2647 95.1123C52.8563 95.0612 52.8223 95.1123 52.8053 95.7078C52.7882 96.0652 52.7372 96.5757 52.6691 96.865L52.567 97.3585L51.8013 96.4566C51.3759 95.9631 50.8313 95.4526 50.5761 95.3165L50.0996 95.0612V97.3755Z" fill="black"/>
<path d="M66.6572 97.4096V99.6729H67.1507C67.6102 99.6729 67.6272 99.6388 67.6272 98.9071C67.6272 98.4817 67.6952 98.1414 67.7803 98.1414C67.8654 98.1414 68.2398 98.4987 68.6141 98.9241C69.1757 99.5878 69.3459 99.6899 69.8223 99.6388L70.3839 99.5878L69.7543 98.788L69.1246 97.9712L69.6522 97.3756C70.2818 96.6439 70.2988 96.4397 69.7713 95.8101C69.3969 95.3847 69.2267 95.3336 68.0015 95.2485L66.6572 95.1634V97.4096ZM68.9375 96.3716C69.1076 96.8141 68.7503 97.2054 68.2057 97.2054C67.7803 97.2054 67.7123 97.1374 67.6612 96.6439C67.6102 96.1164 67.6272 96.0994 68.2228 96.0994C68.6312 96.0994 68.8694 96.1844 68.9375 96.3716Z" fill="black"/>
<path d="M78.7052 95.521C78.3478 95.8273 78.1777 96.1166 78.1777 96.4399C78.1777 96.8653 78.3308 97.0185 79.1646 97.5119C79.6921 97.8182 80.1346 98.1926 80.1346 98.3287C80.1346 98.6691 79.4199 98.7201 78.9434 98.4138C78.7222 98.2607 78.4499 98.1416 78.3478 98.1416C77.9735 98.1416 78.1947 98.8052 78.7222 99.2476C79.3178 99.7581 79.9134 99.7411 80.6451 99.2136C81.598 98.5329 81.2577 97.5119 79.8623 96.8313C78.7732 96.3038 78.8753 95.9975 80.1005 96.0655C80.9684 96.1166 81.0705 96.0825 81.0705 95.7933C81.0705 95.572 80.8833 95.3849 80.543 95.2657C79.7092 94.9765 79.2667 95.0445 78.7052 95.521Z" fill="black"/>
<path d="M83.2825 95.3171C83.2825 95.4533 83.2484 95.6745 83.1804 95.8106C83.1123 95.9808 83.2825 96.0829 83.7759 96.168L84.4736 96.2701L84.4396 97.9377C84.4056 99.5202 84.4226 99.5883 84.7799 99.6394C85.1373 99.6904 85.1543 99.6564 85.1543 97.9037V96.0999H85.7329C86.2093 96.0999 86.3114 96.0318 86.3795 95.6745C86.4305 95.4533 86.4305 95.215 86.3795 95.164C86.3284 95.1129 85.6137 95.0789 84.7799 95.0789C83.6058 95.0789 83.2825 95.1299 83.2825 95.3171Z" fill="black"/>
<path d="M88.5236 97.3758C88.4895 99.2306 88.5236 99.656 88.6937 99.588C88.8299 99.5369 89.0681 99.5029 89.2553 99.5029C89.5616 99.5029 89.5786 99.3497 89.5786 97.2907V95.0785H89.0851H88.5746L88.5236 97.3758Z" fill="black"/>
<path d="M93.4074 95.2825C92.7607 95.6228 92.1311 96.3205 91.961 96.882C91.8078 97.3415 91.8248 97.5797 92.0971 98.2093C92.4885 99.0602 92.999 99.4686 93.8838 99.6217C94.3603 99.6898 94.5645 99.6217 95.041 99.1963L95.6025 98.7028L95.2111 98.4986C94.9048 98.3284 94.7177 98.3284 94.3433 98.4816C93.5605 98.8049 92.8118 98.2093 92.8118 97.2394C92.8118 96.4396 93.6626 96.0312 94.7347 96.3205C95.4324 96.5077 95.5685 95.9972 94.9559 95.4696C94.4624 95.0442 93.9519 94.9762 93.4074 95.2825Z" fill="black"/>
<path d="M19.9805 97.3759C19.9805 99.1456 20.0315 99.537 20.2357 99.6221C20.3889 99.6731 20.542 99.6902 20.5761 99.6561C20.6101 99.6221 20.6611 99.0265 20.6952 98.3458C20.7292 97.6822 20.7803 97.1206 20.8313 97.1206C20.8824 97.1377 21.1206 97.444 21.3758 97.8013C21.6311 98.1757 21.9204 98.482 22.0055 98.482C22.0735 98.482 22.3628 98.1587 22.6351 97.7503L23.1286 97.0356L23.1796 98.3458C23.2307 99.6731 23.2817 99.7752 23.7922 99.571C24.0134 99.486 24.0645 99.1626 24.0645 97.8864C24.0645 97.0185 24.0134 96.0656 23.9624 95.7763C23.7922 94.9765 23.2477 95.0616 22.6181 96.0146C22.3458 96.423 22.0565 96.7803 21.9884 96.7803C21.9204 96.7803 21.6311 96.44 21.3418 96.0146C20.9674 95.453 20.6952 95.2488 20.4059 95.2488H19.9805V97.3759Z" fill="black"/>
<path d="M33.389 96.5927C33.4231 97.3244 33.372 98.3114 33.2869 98.7878L33.1338 99.6387L34.0867 99.5536C35.4651 99.4345 36.0777 99.2133 36.5712 98.6347C37.1157 97.971 37.1327 97.0351 36.6052 96.2524C36.0947 95.4866 35.5842 95.2484 34.359 95.2484H33.338L33.389 96.5927ZM35.2949 96.3545C36.6052 97.0351 36.2819 98.3454 34.7844 98.5156C34.376 98.5666 34.359 98.5326 34.3079 97.3244C34.2569 95.9631 34.359 95.861 35.2949 96.3545Z" fill="black"/>
<path d="M44.4505 97.3246C44.4845 98.4817 44.5185 99.4346 44.5355 99.4346C44.5526 99.4516 44.7397 99.5197 44.9439 99.5708C45.2673 99.6729 45.3183 99.6218 45.3694 99.0432C45.4374 98.1243 45.9479 98.0903 46.5605 98.9922C46.8498 99.4006 47.1731 99.6729 47.3773 99.6729C47.8027 99.6729 47.8027 99.5197 47.3433 98.5838L46.9859 97.8351L47.3433 97.3756C47.8538 96.729 47.8198 96.2185 47.1901 95.691C46.7477 95.3166 46.5095 95.2485 45.5395 95.2485H44.3994L44.4505 97.3246ZM46.4244 96.2015C47.071 96.4567 46.5435 97.3586 45.8118 97.2565C45.5055 97.2225 45.4034 97.0863 45.3694 96.6439C45.3183 96.1674 45.3694 96.0994 45.7437 96.0994C45.9649 96.0994 46.2712 96.1504 46.4244 96.2015Z" fill="black"/>
<path d="M59.8845 95.742C59.7484 96.4227 59.374 96.78 58.8465 96.78C58.37 96.78 58.319 96.9842 58.7104 97.3075C58.9146 97.4777 58.9656 97.784 58.9146 98.6008C58.8805 99.1964 58.8976 99.6729 58.9486 99.6729C58.9997 99.6729 59.2719 99.3836 59.5612 99.0432L60.0887 98.4136L60.7354 98.9582C61.0757 99.2645 61.399 99.4857 61.433 99.4516C61.4841 99.4176 61.433 99.0092 61.3309 98.5498C61.1608 97.8351 61.1778 97.6989 61.433 97.5117C61.6032 97.3926 61.8414 97.2905 61.9776 97.2905C62.4881 97.2905 62.0286 96.8821 61.3309 96.712C60.7183 96.5588 60.5652 96.4227 60.412 95.9802C60.1398 95.2145 60.0207 95.1464 59.8845 95.742Z" fill="black"/>
<path d="M100.792 97.2232L100.35 97.6656L100.758 98.4144C100.996 98.8228 101.217 99.1631 101.286 99.1631C101.337 99.1631 101.524 99.027 101.694 98.8738C102.085 98.5165 105.029 98.2782 108.211 98.3463C109.437 98.3803 111.479 98.3803 112.772 98.3463C114.695 98.3123 115.137 98.2612 115.222 98.057C115.273 97.9039 115.29 97.7507 115.239 97.7167C115.205 97.6656 112.278 97.5976 108.756 97.5635C102.63 97.4784 102.307 97.4614 101.847 97.1211C101.575 96.9339 101.32 96.7808 101.286 96.7808C101.251 96.7808 101.03 96.985 100.792 97.2232Z" fill="black"/>
<path d="M7.43901 97.5805C3.37202 97.6316 3.13379 97.6486 3.13379 97.9549C3.13379 98.1421 3.28694 98.3123 3.52517 98.3803C3.72937 98.4314 6.50309 98.4824 9.70222 98.4824C15.3518 98.4824 15.5049 98.4654 15.8282 98.1251C16.3217 97.5805 15.8963 97.4614 13.6841 97.4955C12.6121 97.5295 9.78731 97.5635 7.43901 97.5805Z" fill="black"/>
<path d="M54.7958 99.0263C54.6597 99.2475 54.4895 99.6219 54.4385 99.8942C54.3364 100.303 54.3534 100.337 54.6257 100.234C55.1021 100.064 55.5446 99.4687 55.4935 99.0944C55.4425 98.6009 55.0851 98.5669 54.7958 99.0263Z" fill="black"/>
<path d="M40.8423 104.012C40.4169 105.084 40.0596 106.003 40.0596 106.054C40.0596 106.105 40.2468 106.139 40.468 106.139C40.7743 106.139 40.8934 106.037 40.9444 105.747C40.9785 105.441 41.1146 105.356 41.7102 105.322C42.3568 105.271 42.4589 105.322 42.6461 105.696C42.7822 106.02 42.9694 106.139 43.3098 106.139H43.7692L43.2757 104.93C42.6801 103.484 41.9314 102.055 41.7442 102.055C41.6762 102.055 41.2678 102.94 40.8423 104.012ZM42.1016 104.301C42.1016 104.369 41.9484 104.437 41.7442 104.437C41.489 104.437 41.4209 104.369 41.489 104.165C41.54 104.012 41.5911 103.807 41.5911 103.705C41.6081 103.484 42.1016 104.08 42.1016 104.301Z" fill="black"/>
<path d="M33.0147 102.583C32.7254 102.821 32.5723 103.093 32.5723 103.417C32.5723 103.825 32.7084 103.995 33.338 104.37C34.2569 104.897 34.2399 105.204 33.321 105.221C32.5382 105.221 32.4531 105.527 33.0998 106.003C33.7124 106.463 34.393 106.259 34.7504 105.51C35.0056 104.982 35.0056 104.88 34.7674 104.472C34.6313 104.217 34.2399 103.859 33.8825 103.672C33.5422 103.485 33.2529 103.281 33.2529 103.196C33.2529 103.128 33.6613 103.076 34.1718 103.076C35.2269 103.076 35.4821 102.889 34.9206 102.498C34.393 102.124 33.5592 102.158 33.0147 102.583Z" fill="black"/>
<path d="M36.7417 102.396C36.6907 102.481 36.7247 102.736 36.8438 102.94C36.98 103.196 37.014 103.791 36.9289 104.812L36.8268 106.31L37.3033 106.207C37.5585 106.139 37.7797 106.088 37.7797 106.071C37.7968 106.054 37.8478 105.186 37.8818 104.131L37.9839 102.226H37.4054C37.0991 102.226 36.7928 102.294 36.7417 102.396Z" fill="black"/>
<path d="M45.8284 102.515C44.5181 103.315 44.5011 105.033 45.7944 105.816C46.8494 106.48 48.2278 105.935 48.2278 104.863C48.2278 104.216 47.9555 103.927 47.3429 103.927C46.7984 103.927 46.6963 104.302 47.1217 104.727C47.445 105.033 47.3089 105.288 46.7984 105.288C46.2538 105.288 45.8454 104.778 45.8454 104.08C45.8454 103.264 46.1007 103.076 47.1557 103.076C48.1257 103.076 48.2788 102.906 47.6832 102.498C47.1897 102.157 46.39 102.157 45.8284 102.515Z" fill="black"/>
<path d="M49.9123 102.311C49.8612 102.345 49.8953 102.991 49.9633 103.706C50.0484 104.438 50.0654 105.289 50.0144 105.612L49.9123 106.19L50.5589 106.088C50.9163 106.02 51.4097 105.969 51.682 105.969C52.0223 105.969 52.1415 105.884 52.1415 105.629C52.1415 105.272 51.4948 104.999 51.0184 105.186C50.7801 105.272 50.7631 105.118 50.7801 103.978C50.7971 103.247 50.8142 102.549 50.7971 102.43C50.7801 102.243 50.0824 102.14 49.9123 102.311Z" fill="black"/>
<path d="M53.7581 102.77C53.7071 103.077 53.673 103.945 53.7071 104.693C53.7581 105.919 53.7921 106.055 54.0984 106.055C54.4218 106.055 54.4388 105.936 54.4388 104.183C54.4388 102.566 54.4047 102.311 54.1495 102.26C53.9453 102.226 53.8262 102.362 53.7581 102.77Z" fill="black"/>
<path d="M62.2327 102.344L61.501 102.412V104.199V105.969L62.3518 106.003C62.8283 106.02 63.3388 106.037 63.5089 106.037C63.7131 106.054 63.7982 105.918 63.7982 105.628C63.7982 105.254 63.7131 105.203 63.1686 105.152C62.6751 105.118 62.522 105.016 62.522 104.777C62.522 104.539 62.6581 104.437 63.0665 104.403C63.8493 104.335 63.8323 103.995 63.0325 103.859C62.505 103.773 62.3518 103.671 62.3518 103.416C62.3518 103.144 62.4709 103.076 62.9304 103.076C63.526 103.076 64.0024 102.718 63.7982 102.395C63.7472 102.31 63.526 102.242 63.3218 102.259C63.1176 102.276 62.6241 102.31 62.2327 102.344Z" fill="black"/>
<path d="M56.4294 104.216C56.4805 105.765 56.5315 106.054 56.7527 106.105C56.974 106.139 57.0761 105.969 57.1611 105.288L57.2803 104.421L58.063 105.067C58.5055 105.425 58.9649 105.816 59.101 105.935C59.5775 106.395 59.6966 106.054 59.6456 104.336C59.6286 103.417 59.5605 102.6 59.5265 102.532C59.4754 102.447 59.2882 102.396 59.101 102.396C58.8288 102.396 58.7777 102.515 58.7777 103.263V104.148L57.8588 103.263C56.4635 101.97 56.3784 102.021 56.4294 104.216Z" fill="black"/>
<path d="M68.4097 103.025C68.3587 103.382 68.3076 104.233 68.3076 104.896C68.3076 106.105 68.3246 106.139 68.716 106.139C69.0904 106.139 69.1414 106.054 69.1925 105.407C69.2435 104.692 69.2435 104.692 69.9753 104.641L70.69 104.59V105.356C70.69 106.003 70.741 106.139 71.0133 106.139C71.2855 106.139 71.3366 105.951 71.4217 104.726C71.6089 102.446 71.6089 102.395 71.1154 102.395C70.741 102.395 70.69 102.463 70.69 103.076V103.756H69.9242H69.1585V103.076C69.1585 102.531 69.0904 102.395 68.8351 102.395C68.5969 102.395 68.4948 102.565 68.4097 103.025Z" fill="black"/>
<path d="M73.446 104.182L73.497 105.969H74.0926C74.4159 105.969 74.9775 106.02 75.3348 106.071C75.8964 106.173 75.9645 106.139 75.9645 105.833C75.9645 105.425 75.505 105.118 74.8754 105.118C74.5521 105.118 74.433 105.033 74.433 104.778C74.433 104.489 74.5521 104.438 75.1136 104.438C75.6752 104.438 75.7943 104.387 75.7943 104.097C75.7943 103.808 75.6752 103.757 75.0285 103.757C74.3819 103.757 74.2628 103.706 74.2628 103.417C74.2628 103.11 74.3819 103.076 75.1987 103.076C76.0155 103.076 76.1346 103.042 76.1346 102.736C76.1346 102.43 76.0155 102.396 74.7563 102.396H73.3779L73.446 104.182Z" fill="black"/>
<path d="M77.8196 102.515C77.7345 103.57 77.9047 106.071 78.0578 106.173C78.4152 106.395 78.6024 106.208 78.6534 105.578C78.6875 105.238 78.7555 104.948 78.8236 104.948C78.8746 104.948 79.266 105.272 79.6574 105.663C80.1679 106.173 80.4402 106.327 80.5593 106.208C80.6954 106.071 80.6444 105.833 80.3891 105.408L80.0148 104.778L80.3721 104.336C80.8316 103.74 80.8145 103.332 80.304 102.821C79.9637 102.464 79.7255 102.396 78.8576 102.396C78.2961 102.396 77.8366 102.447 77.8196 102.515ZM79.7935 103.587C79.7935 103.944 79.7085 104.029 79.249 104.063C78.7215 104.114 78.6875 104.08 78.6875 103.587C78.6875 103.093 78.7215 103.059 79.249 103.11C79.7085 103.145 79.7935 103.23 79.7935 103.587Z" fill="black"/>
<path d="M82.4316 104.217V106.054L83.7249 106.088C84.9671 106.105 85.0182 106.088 84.9161 105.748C84.865 105.544 84.814 105.323 84.814 105.255C84.814 105.204 84.5077 105.187 84.1333 105.238C83.4867 105.323 83.4526 105.306 83.4526 104.88C83.4526 104.489 83.5207 104.438 84.0482 104.438C84.4396 104.438 84.6438 104.353 84.6438 104.2C84.6438 103.944 84.2865 103.757 83.776 103.757C83.5718 103.757 83.4526 103.638 83.4526 103.434C83.4526 103.145 83.5888 103.093 84.2694 103.042C84.848 103.008 85.0692 102.923 85.0692 102.736C85.0692 102.532 84.7799 102.464 83.7589 102.43L82.4316 102.379V104.217Z" fill="black"/>
</svg>
