<svg width="15" height="21" viewBox="0 0 15 21" fill="none" xmlns="http://www.w3.org/2000/svg">
<path d="M7.5 5.03418C8.16304 5.03418 8.79893 5.29757 9.26777 5.76641C9.73661 6.23525 10 6.87114 10 7.53418C10 7.86248 9.93534 8.18757 9.8097 8.49089C9.68406 8.7942 9.49991 9.0698 9.26777 9.30195C9.03562 9.53409 8.76002 9.71824 8.45671 9.84388C8.15339 9.96952 7.8283 10.0342 7.5 10.0342C6.83696 10.0342 6.20107 9.77079 5.73223 9.30195C5.26339 8.83311 5 8.19722 5 7.53418C5 6.87114 5.26339 6.23525 5.73223 5.76641C6.20107 5.29757 6.83696 5.03418 7.5 5.03418ZM7.5 0.53418C9.35652 0.53418 11.137 1.27168 12.4497 2.58443C13.7625 3.89719 14.5 5.67766 14.5 7.53418C14.5 12.7842 7.5 20.5342 7.5 20.5342C7.5 20.5342 0.5 12.7842 0.5 7.53418C0.5 5.67766 1.2375 3.89719 2.55025 2.58443C3.86301 1.27168 5.64348 0.53418 7.5 0.53418ZM7.5 2.53418C6.17392 2.53418 4.90215 3.06096 3.96447 3.99865C3.02678 4.93633 2.5 6.2081 2.5 7.53418C2.5 8.53418 2.5 10.5342 7.5 17.2442C12.5 10.5342 12.5 8.53418 12.5 7.53418C12.5 6.2081 11.9732 4.93633 11.0355 3.99865C10.0979 3.06096 8.82608 2.53418 7.5 2.53418Z" fill="#EDDEA3"/>
</svg>
