<svg width="25" height="25" viewBox="0 0 25 25" fill="none" xmlns="http://www.w3.org/2000/svg">
<path d="M7.12 11.3242C8.56 14.1542 10.88 16.4742 13.71 17.9142L15.91 15.7142C16.19 15.4342 16.58 15.3542 16.93 15.4642C18.05 15.8342 19.25 16.0342 20.5 16.0342C20.7652 16.0342 21.0196 16.1395 21.2071 16.3271C21.3946 16.5146 21.5 16.769 21.5 17.0342V20.5342C21.5 20.7994 21.3946 21.0538 21.2071 21.2413C21.0196 21.4288 20.7652 21.5342 20.5 21.5342C15.9913 21.5342 11.6673 19.7431 8.47918 16.555C5.29107 13.3669 3.5 9.04286 3.5 4.53418C3.5 4.26896 3.60536 4.01461 3.79289 3.82707C3.98043 3.63954 4.23478 3.53418 4.5 3.53418H8C8.26522 3.53418 8.51957 3.63954 8.70711 3.82707C8.89464 4.01461 9 4.26896 9 4.53418C9 5.78418 9.2 6.98418 9.57 8.10418C9.68 8.45418 9.6 8.84418 9.32 9.12418L7.12 11.3242Z" fill="#EDDEA3"/>
</svg>
